<svg xmlns="http://www.w3.org/2000/svg" width="32" height="28" fill="none" viewBox="0 0 32 28"><path fill="#0E8BDE" fill-rule="evenodd" d="m2.535 13.303 26.84-.81c.989 0 1.79.537 1.79 1.507 0 .97-.801 1.507-1.79 1.507l-26.84-.81c-.988 0-1.789.273-1.789-.697s.8-.697 1.789-.697ZM10.028 7.36l17.57-.81c.988 0 1.789.537 1.789 1.507 0 .97-.8 1.507-1.789 1.507l-17.57-.81c-.987 0-1.788.273-1.788-.697s.8-.697 1.788-.697ZM17.903 1.687l7.155-.81c.988 0 1.789.537 1.789 1.507 0 .97-.8 1.507-1.789 1.507l-7.155-.81c-.988 0-1.789.273-1.789-.697s.801-.697 1.789-.697ZM17.903 24.92l7.155-.811c.988 0 1.789.537 1.789 1.507 0 .97-.8 1.507-1.789 1.507l-7.155-.81c-.988 0-1.789.273-1.789-.697s.801-.697 1.789-.697ZM10.028 18.976l17.57-.81c.988 0 1.789.537 1.789 1.507 0 .97-.8 1.507-1.789 1.507l-17.57-.81c-.987 0-1.788.273-1.788-.697s.8-.697 1.788-.697Z" clip-rule="evenodd"/></svg>