<svg xmlns="http://www.w3.org/2000/svg" xml:space="preserve" id="Layer_1" x="0" y="0" style="enable-background:new 0 0 1920 1080" version="1.1" viewBox="0 0 1920 1080"><style type="text/css">.st0{fill:#187fae}.st0,.st1{fill-rule:evenodd;clip-rule:evenodd}.st1,.st2{fill:#195a7f}</style><path d="M1398.7 563.3c-4.5 21.4-21.5 30.7-42.1 31.6-17.9.9-34.1-14.9-22.4-33.5 9-15.8 34.1-19.5 49.3-19.5h19.7c-1.8 7.4-2.7 13.9-4.5 21.4zm-5.3-163.8c-38.6 0-69.1 10.2-92.4 14.9l-7.2 58.6c11.7-5.6 48.4-15.8 78.9-16.7 30.5-.9 48.4 5.6 42.2 31.6-90.6 0-151.6 18.6-164.2 77.2-17.9 100.5 92.4 97.7 136.3 54l-5.4 24.2h80.7l35-160c14.5-68-47.4-84.7-103.9-83.8M1566.5 336.2l-66.8 307.1h82l67.6-307.1h-82.8M1187.1 441.4c-5.4 23.3-28.8 41.9-51.3 41.9h-40.4l18-83.7h43.2c22.3-.1 35.8 18.5 30.5 41.8zm2.6-104.2h-150.1l-66.5 306.1h87.2l22.5-101.4h62c61.1 0 111.5-37.2 125-100.5 15.2-71.6-36.9-104.2-80.1-104.2" class="st0"/><path d="M613.3 563.3c-4.4 21.4-22.2 30.7-42.5 31.6-17.7.9-32.8-14.9-21.3-33.5 8.9-15.8 33.7-19.5 47.8-19.5h20.4c-1.7 7.4-3.5 13.9-4.4 21.4zm-6.1-163.8c-38.1 0-68.2 10.2-90.4 14.9l-7.1 58.6c10.6-5.6 47-15.8 77.1-16.7 30.1-.9 47.9 5.6 42.5 31.6-89.5 0-149.7 18.6-162.1 77.2-17.7 100.5 91.3 97.7 133.8 54l-5.3 24.2h80.6l34.6-160c14.1-68-47.9-84.7-103.7-83.8M745.9 403.9h80.7l13 142.6 78.9-142.6h83.2L810.1 745.1h-90.2l59-100.3-33-240.9M403.9 441.4c-5.4 23.3-27.9 41.9-50.5 41.9H312l18.9-83.7h43.3c21.6-.1 36 18.5 29.7 41.8zm2.7-104.2H256.1l-66.7 306.1h88.3l21.6-101.4h63.1c60.4 0 110.9-37.2 124.4-100.5 15.3-71.6-36-104.2-80.2-104.2" class="st1"/><path d="M1667 375.9v-36.2h-13.5v-4.8h32.5v4.8h-13.5v36.2h-5.5M1691.4 375.9v-41h8.1l9.7 29.1c.9 2.7 1.6 4.7 2 6.1.5-1.5 1.2-3.7 2.2-6.6l9.8-28.5h7.3v41h-5.2v-34.4l-12 34.4h-4.9l-11.9-34.9V376h-5.1" class="st2"/></svg>