<svg xmlns="http://www.w3.org/2000/svg" xml:space="preserve" id="Layer_1" x="0" y="0" style="enable-background:new 0 0 1920 1080" version="1.1" viewBox="0 0 1920 1080"><style type="text/css">.st0{fill:#187fae}.st0,.st1{fill-rule:evenodd;clip-rule:evenodd}.st1,.st2{fill:#195a7f}.st3{fill:#27346a}</style><path d="M3393.3 563.3c-4.5 21.4-21.5 30.7-42.1 31.6-17.9.9-34.1-14.9-22.4-33.5 9-15.8 34.1-19.5 49.3-19.5h19.7c-1.8 7.4-2.7 13.9-4.5 21.4zm-5.4-163.8c-38.6 0-69.1 10.2-92.4 14.9l-7.2 58.6c11.7-5.6 48.4-15.8 78.9-16.7 30.5-.9 48.4 5.6 42.2 31.6-90.6 0-151.6 18.6-164.2 77.2-17.9 100.5 92.4 97.7 136.3 54l-5.4 24.2h80.7l35-160c14.5-68-47.4-84.7-103.9-83.8M3561 336.2l-66.7 307.1h82l67.6-307.1H3561M3181.6 441.4c-5.4 23.3-28.8 41.9-51.3 41.9h-40.4l18-83.7h43.2c22.4-.1 35.9 18.5 30.5 41.8zm2.7-104.2h-150.1l-66.5 306.1h87.2l22.5-101.4h62c61.1 0 111.5-37.2 125-100.5 15.2-71.6-37-104.2-80.1-104.2" class="st0"/><path d="M2607.9 563.3c-4.4 21.4-22.2 30.7-42.5 31.6-17.7.9-32.8-14.9-21.3-33.5 8.9-15.8 33.7-19.5 47.8-19.5h20.4c-1.7 7.4-3.5 13.9-4.4 21.4zm-6.2-163.8c-38.1 0-68.2 10.2-90.4 14.9l-7.1 58.6c10.6-5.6 47-15.8 77.1-16.7 30.1-.9 47.9 5.6 42.5 31.6-89.5 0-149.7 18.6-162.1 77.2-17.7 100.5 91.3 97.7 133.8 54l-5.3 24.2h80.6l34.6-160c14.2-68-47.9-84.7-103.7-83.8M2740.5 403.9h80.6l13 142.6 78.9-142.6h83.2l-191.5 341.2h-90.2l58.9-100.3-32.9-240.9M2398.5 441.4c-5.4 23.3-27.9 41.9-50.5 41.9h-41.5l18.9-83.7h43.3c21.7-.1 36.1 18.5 29.8 41.8zm2.7-104.2h-150.5L2184 643.3h88.3l21.6-101.4h63.1c60.4 0 110.9-37.2 124.4-100.5 15.3-71.6-36.1-104.2-80.2-104.2" class="st1"/><path d="M3661.6 375.9v-36.2h-13.5v-4.8h32.5v4.8H3667v36.2h-5.4M3686 375.9v-41h8.1l9.7 29.1c.9 2.7 1.6 4.7 2 6.1.5-1.5 1.2-3.7 2.2-6.6l9.8-28.5h7.3v41h-5.2v-34.4l-12 34.4h-4.9l-11.9-34.9V376h-5.1" class="st2"/><path d="M1191.1 210.5c-35.9-41-100.9-58.5-184-58.5H765.9c-17 0-31.5 12.4-34.1 29.1L631.4 818c-2 12.6 7.7 23.9 20.5 23.9h148.9l37.4-237.2-1.2 7.4c2.7-16.8 17-29.1 34-29.1h70.8c139 0 247.8-56.5 279.6-219.8.9-4.8 1.8-9.5 2.5-14.1-4-2.1-4-2.1 0 0 9.4-60.3-.1-101.4-32.8-138.6" class="st3"/><path d="M895.1 327.4c4-1.9 8.4-2.9 13-2.9h189.1c22.4 0 43.3 1.5 62.4 4.5 5.5.9 10.8 1.9 15.9 3 5.2 1.1 10.2 2.4 15 3.8 2.4.7 4.8 1.4 7.1 2.2 9.4 3.1 18.1 6.8 26.1 11.1 9.5-60.4-.1-101.5-32.7-138.7-36-41-100.9-58.5-184-58.5H765.9c-17 0-31.4 12.4-34.1 29.1L631.4 818c-2 12.6 7.7 23.9 20.4 23.9h148.9l77.6-492c1.6-10.1 8.1-18.3 16.8-22.5z" class="st3"/><path d="M1221.4 363.3C1189.6 526.6 1080.8 583 941.7 583H871c-17 0-31.3 12.4-34 29.1L790.5 907c-1.7 11 6.8 21 17.9 21h125.5c14.9 0 27.5-10.8 29.8-25.5l1.2-6.4 23.7-149.9 1.5-8.3c2.3-14.7 15-25.5 29.8-25.5h18.8c121.6 0 216.8-49.4 244.6-192.3 11.6-59.7 5.6-109.6-25.1-144.6-9.3-10.6-20.9-19.4-34.4-26.5-.7 4.7-1.5 9.4-2.4 14.3z" style="fill:#2790c3"/><path d="M1190.6 335.9c-4.9-1.4-9.9-2.7-15-3.8-5.2-1.1-10.5-2.1-15.9-3-19.1-3.1-40-4.6-62.4-4.6H908.2c-4.7 0-9.1 1.1-13 3-8.7 4.2-15.2 12.4-16.8 22.5l-40.2 254.8-1.2 7.4c2.6-16.8 17-29.1 34-29.1h70.8c139 0 247.8-56.5 279.6-219.8.9-4.8 1.7-9.5 2.5-14.1-8.1-4.3-16.8-7.9-26.1-11-2.4-.9-4.8-1.6-7.2-2.3" style="fill:#1f264f"/></svg>