<svg xmlns="http://www.w3.org/2000/svg" xml:space="preserve" id="Layer_1" x="0" y="0" style="enable-background:new 0 0 41.1 41.2" version="1.1" viewBox="0 0 41.1 41.2"><style type="text/css">.st0{fill:#4aace9}.st1{fill:#fff}</style><path d="M32.6 41.1H8.5c-4.7 0-8.5-3.8-8.5-8.5V8.5C0 3.8 3.8 0 8.5 0h24.2c4.7 0 8.5 3.8 8.5 8.5v24.2c-.1 4.7-3.9 8.4-8.6 8.4z" class="st0"/><path d="M27.5 36.2H14.3c-4.8 0-8.7-3.9-8.7-8.7V14.3c0-4.8 3.9-8.7 8.7-8.7h13.3c4.8 0 8.7 3.9 8.7 8.7v13.3c-.1 4.7-4 8.6-8.8 8.6z" class="st1"/><path d="M27.3 33.6H14.5c-3.5 0-6.3-2.8-6.3-6.3V14.5c0-3.5 2.8-6.3 6.3-6.3h12.8c3.5 0 6.3 2.8 6.3 6.3v12.9c0 3.4-2.8 6.2-6.3 6.2z" class="st0"/><circle cx="20.9" cy="20.9" r="7.9" class="st1"/><circle cx="29" cy="12.8" r="1.8" class="st1"/></svg>