<svg xmlns="http://www.w3.org/2000/svg" xml:space="preserve" id="Layer_1" x="0" y="0" style="enable-background:new 0 0 717.6 141" version="1.1" viewBox="0 0 717.6 141"><style type="text/css">.st0{fill:#4aa4e9}</style><path id="Heat_Fleet" d="M189.4 113h13.2V75h40v38h13.2V27.1h-13.2v35.7h-40V27.1h-13.2V113zm134.7-32c0-15.9-8.7-29.9-27.6-29.9-19.3 0-28.2 15.5-28.2 31.8 0 16.6 9.1 31.2 29.2 31.2 10 0 17.7-3.2 24.6-10.8l-8.9-7.6c-4.6 5.2-9.6 6.9-15.5 6.9-10.4 0-16.2-6.3-16.7-16h42.7c.2-1.9.4-3.7.4-5.6zM281 76.3c.9-7.5 5.8-14.6 15.5-14.6 9 0 15.1 5.8 15.3 14.4v.2H281zm75.9-25.2c-10.8 0-19.5 4.2-26.5 12.8l9.3 7.8c4.5-6.3 10.4-9.5 17.1-9.5 8 0 12.8 4.6 12.8 12.5v2.1h-14.2c-8.6 0-14.3 1-18.5 3.1-5.4 2.7-8.4 7.9-8.4 14.8 0 11.6 8.7 19.4 21.6 19.4 8.7 0 15.7-3.6 19.7-9.8l.9 8.7h11.6V74.7c0-14.8-9.6-23.6-25.4-23.6zm-4.4 52.2c-6.9 0-11.2-3.2-11.2-8.3 0-2.6.8-4.7 2.7-6 2.3-1.8 5.9-2.4 12.9-2.4h12.7v.2c0 9.6-7.2 16.5-17.1 16.5zm73.2-1.3c-2.8.8-5.2 1.3-7.3 1.3-4.8 0-7.7-2.4-7.7-7.6V62.4h15V52.2h-15V29.6L398 39.1v13.1h-10v10.2h10v34.4c0 12.2 7.7 17.3 17.3 17.3 3.3 0 6.9-.6 10.5-1.8l-.1-10.3zm40.1 11H479V75h41.2V62.8H479V39.3h46.9V27.1h-60.1V113zm82.7 1.1c2.8 0 6-.6 9.1-1.7V102c-1.9.6-3.6.9-5.1.9-3.2 0-4.8-1.6-4.8-4.8V27H535v71.9c0 10.4 5.6 15.2 13.5 15.2zM616.6 81c0-15.9-8.7-29.9-27.5-29.9-19.4 0-28.3 15.5-28.3 31.8 0 16.6 9.1 31.2 29.2 31.2 10 0 17.7-3.2 24.6-10.7l-8.9-7.7c-4.6 5.2-9.6 6.9-15.5 6.9-10.4 0-16.2-6.3-16.7-16h42.7c.2-1.9.4-3.7.4-5.6zm-43.1-4.6c.9-7.6 5.8-14.7 15.6-14.7 9 0 15 5.8 15.3 14.4v.3h-30.9zM677.3 81c0-15.9-8.6-29.9-27.5-29.9-19.3 0-28.2 15.5-28.2 31.8 0 16.6 9.1 31.2 29.2 31.2 10 0 17.7-3.2 24.6-10.7l-8.9-7.7c-4.6 5.2-9.6 6.9-15.6 6.9-10.3 0-16.1-6.3-16.6-16H677c.2-1.9.3-3.7.3-5.6zm-43-4.6c.8-7.6 5.8-14.7 15.5-14.7 9 0 15.1 5.8 15.3 14.4v.3h-30.8zm83.2 25.6c-2.7.9-5.2 1.4-7.3 1.4-4.8 0-7.6-2.5-7.6-7.7V62.4h14.9V52.2h-14.9V29.6l-12.7 9.5v13.1h-10v10.2h10v34.4c0 12.2 7.6 17.3 17.2 17.3 3.4 0 6.9-.6 10.5-1.7l-.1-10.4z" class="st0"/><path id="Rounded_Rectangle_540" d="m11.4 64 139.9-2.7c5.1 0 9.3 2.8 9.3 8 0 5.1-4.2 8-9.3 8L11.5 74.6c-5.1 0-9.5-.2-9.5-5.3 0-5.2 4.3-5.3 9.4-5.3z" class="st0"/><path id="Rounded_Rectangle_540_copy" d="m50.6 33.5 91.4-3c5.2 0 9.3 2.9 9.3 8 0 5.2-4.1 8-9.3 8l-91.6-2.4c-5.1 0-9.3-.4-9.3-5.6 0-5.1 4.4-5 9.5-5z" class="st0"/><path id="Rounded_Rectangle_540_copy_1_" d="m50.6 95.5 91.4-3c5.2 0 9.3 2.9 9.3 8 0 5.2-4.1 8-9.3 8l-91.6-2.3c-5.1 0-9.3-.4-9.3-5.7 0-5.1 4.4-5 9.5-5z" class="st0"/><path id="Rounded_Rectangle_540_copy_3" d="m91.8 3.1 37-2.5c5.1 0 9.3 2.9 9.3 8 0 5.2-4.2 8-9.3 8l-37.2-2.4c-5.2 0-9.5-.4-9.5-5.6 0-5.1 4.5-5.5 9.7-5.5z" class="st0"/><path id="Rounded_Rectangle_540_copy_3_1_" d="m91.8 127.8 37-2.5c5.1 0 9.3 2.9 9.3 8 0 5.2-4.2 8-9.3 8l-37.2-2.4c-5.2 0-9.5-.4-9.5-5.6 0-5.1 4.5-5.5 9.7-5.5z" class="st0"/></svg>