<svg xmlns="http://www.w3.org/2000/svg" width="23" height="20" fill="none" viewBox="0 0 23 20"><path fill="#000" d="M22.136 5.539v12.91c0 .716-.58 1.301-1.289 1.301H2.153a1.3 1.3 0 0 1-1.29-1.301V5.539c0-.716.58-1.398 1.29-1.398h7.155l-1.74-1.724a1.255 1.255 0 0 1 0-1.789c.515-.52 1.321-.488 1.837 0l3.932 4c.484.52.484 1.334 0 1.821l-3.932 4c-.257.26-.58.39-.902.39-.323 0-.645-.13-.903-.39-.516-.52-.516-1.366 0-1.853l1.74-1.822H3.442v10.407h16.116V6.742H16.85c-.71 0-1.29-.585-1.29-1.3 0-.716.58-1.301 1.29-1.301h3.997c.71 0 1.29.682 1.29 1.398Z"/></svg>