<svg xmlns="http://www.w3.org/2000/svg" width="27" height="27" fill="none" viewBox="0 0 27 27"><path fill="#FF8137" d="M15.911 15.288h-5.824V9.464h5.824v5.824Zm-4.338-1.486h2.852V10.95h-2.852v2.852ZM23.5 15.455h-5.824V9.631H23.5v5.824Zm-4.338-1.486h2.852v-2.851h-2.852v2.851ZM8.332 15.288H2.508V9.464h5.824v5.824Zm-4.338-1.486h2.852V10.95H3.994v2.852ZM15.911 22.747h-5.824v-5.824h5.824v5.824Zm-4.338-1.486h2.852v-2.852h-2.852v2.852ZM23.5 22.914h-5.824V17.09H23.5v5.824Zm-4.338-1.486h2.852v-2.852h-2.852v2.852ZM8.332 22.747H2.508v-5.824h5.824v5.824ZM3.994 21.26h2.852v-2.852H3.994v2.852Z"/><path fill="#2E2C3A" d="M24.522 4.114v20.871H1.486V4.114h.279c.12.724.4 1.365.845 1.895a3.662 3.662 0 0 0 2.814 1.3 3.662 3.662 0 0 0 2.815-1.3c.446-.53.724-1.17.845-1.895h7.858c.121.724.4 1.365.846 1.895a3.662 3.662 0 0 0 2.814 1.3 3.662 3.662 0 0 0 2.814-1.3c.446-.53.725-1.17.846-1.895h.278-.018Zm1.504-1.486h-3.25c.371 2.127-.902 3.195-2.165 3.195s-2.545-1.068-2.164-3.195H7.589c.371 2.127-.901 3.195-2.165 3.195-1.263 0-2.545-1.068-2.164-3.195H0V26.47h26.008V2.628h.018Z"/><path fill="#2E2C3A" d="M20.593.473c-.548 0-1.096.353-1.087 1.059.102.91-.465 3.25 1.05 3.25h.074c1.514 0 .947-2.34 1.05-3.25.009-.706-.54-1.06-1.087-1.06ZM5.452.445h-.074c-1.514 0-.947 2.34-1.05 3.251-.009.706.54 1.059 1.087 1.059.548 0 1.096-.353 1.087-1.059-.102-.91.464-3.251-1.05-3.251Z"/></svg>