<svg xmlns="http://www.w3.org/2000/svg" width="52" height="18" fill="none" viewBox="0 0 52 18"><path fill="#2E2C3A" d="M13.123 10.508a3.751 3.751 0 0 0-3.746 3.746A3.751 3.751 0 0 0 13.123 18a3.751 3.751 0 0 0 3.746-3.746 3.751 3.751 0 0 0-3.746-3.746Zm0 5.884a2.13 2.13 0 0 1-2.138-2.138 2.13 2.13 0 0 1 2.138-2.138 2.13 2.13 0 0 1 2.138 2.138 2.13 2.13 0 0 1-2.138 2.138ZM45.688 10.508a3.751 3.751 0 0 0-3.747 3.746A3.751 3.751 0 0 0 45.688 18a3.751 3.751 0 0 0 3.746-3.746 3.751 3.751 0 0 0-3.746-3.746Zm0 5.884a2.13 2.13 0 0 1-2.138-2.138 2.13 2.13 0 0 1 2.138-2.138 2.13 2.13 0 0 1 2.138 2.138 2.13 2.13 0 0 1-2.138 2.138Z"/><path fill="#2E2C3A" d="M51.024 13.431V8.406c-1.298-.968-7.803-1.535-7.803-1.535l-1.974-5.373h.768l-.932-.456h-7.255a.675.675 0 0 0-.676.676v10.306h-1.736V10.71c1.334-3.198 1.334-6.396 0-9.613V0H1.976v1.06h-.037c-1.955.42-1.79 8.278 0 8.37h.037v1.224h1.023v1.37h.402a9.842 9.842 0 0 0 0 3.107h4.752a12.622 12.622 0 0 0 0-3.107h1.26l1.463-1.882h4.605l1.206 1.882h1.407a12.624 12.624 0 0 0 0 3.107h23.3V12.39a4.427 4.427 0 0 1 4.093-2.723 4.43 4.43 0 0 1 4.184 2.979v2.485h2.047v-1.7H51.024Zm-10.6-7.053h-4.732c-.384 0-.695-.33-.695-.731V3.436c0-.402.311-.731.695-.731h4.166c.384 0 .695.329.695.73l.548 2.23c0 .402-.31.73-.694.73l.018-.017Z"/></svg>