<svg xmlns="http://www.w3.org/2000/svg" xml:space="preserve" id="Layer_1" x="0" y="0" style="enable-background:new 0 0 80 54.5" version="1.1" viewBox="0 0 80 54.5"><style type="text/css">.st1{fill:#008200}.st2{font-family:&quot;ArialMT&quot;}.st3{font-size:6.12px}</style><path d="M38.1 11.6v13.5c0 .6.1 1.1-.2 1.7-.3.6-1.1 1.2-1.6 1.7 0-.1 1.9.2 2.1.2.8 0 1.6-.1 2.4-.2 1.6-.3 2.8-1 4.2-1.6 1.2-.6 1.2.6.4 1-1.5.9-3.2 1.8-5 2.3-1.7.6-3.7.9-5.6.6-.1 0-.2 0-.3-.1-.1 0-.1-.1-.1-.2 0-.5.3-1 .8-1.2.5-.3 1.2-.3 1.8-.2-.7-.2-1.3-.9-1.9-1.2-.9-.5-1.9-1-2.7-1.6-.8-.5-1.8-.9-2.4-1.4-.4-.4-.5-.7-.7-1.2-.3-.8-1.1-2-2.1-2.4-1.1-.3-2.5 0-3.7 0H6.3c-1.1 0-2.2.1-3.3.1-.7 0-2 .2-2.6-.2-.9-.6.1-1.8.8-2.3.8-.5 1.8-.9 2.7-1.4 1.5-.8 1.9-1.6 1.4-2.9-.2-.4-.4-.9-.3-1.3.3-2.1 6.4-.8 8-.6 2.8.2 7.4.2 8.4-2.3.2-.6.1-1.2-.1-1.8s-.9-.9-1.1-1.5.6-1 1.3-1.2c.6-.2 1.5-.3 1.9-.7.5-.4.6-1 .8-1.6.4-1.2 1.7-2.3 3.2-2.8 1.4-.5 3.1-.3 4.5-.3 1.7 0 3.4 0 5.1.1.2 0 .5 0 .7.1.9.4.2 2.7.2 3.3v6.9l.2.7z" style="fill:none;stroke:#000;stroke-width:.5707;stroke-miterlimit:10"/><path d="M34.6 18.6H22l4.8-14.8h12.4L37.8 8H31l-.6 2.4h6.3l-.7 2.4h-6.3L29 15h6.5zM62.6 18.6h-12l4.6-14.8h13.4L66.9 8h-7.3l-.6 2.4h7l-1.1 2.4h-6.5l-1 2.2H64zM36.4 18.6l1.1-4h6.2l.5-1.6h-6.4l2.8-9.2 12.5-.3-1.7 5.2h-7.7l-.6 1.4 7.8.3-2.3 8.2zM64.1 18.6l6.2-14.8h6.4L80 18.6h-5.4l-.5-3.8h-3.9l-1.6 3.8h-4.5zM73 8.1l-2.3 4.5h3.1L73 8.1z" class="st1"/><text class="st1 st2 st3" transform="translate(17.982 39.861)">EMPIRE STATE</text><text class="st1 st2 st3" transform="translate(27.482 47.161)">ENERGY</text><text class="st1 st2 st3" transform="translate(19.482 54.561)">ASSOCIATION</text></svg>