<svg xmlns="http://www.w3.org/2000/svg" xml:space="preserve" id="Layer_1" x="0" y="0" style="enable-background:new 0 0 1920 1080" version="1.1" viewBox="0 0 1920 1080"><style type="text/css">.st0{fill:#53a1d8}</style><path d="M227.2 388c0 6.8 5.4 12.5 12.2 12.8l106.8 5.1c10.2-.1 18.4-8.4 18.4-18.6 0-10.3-8.3-18.6-18.6-18.6l-106.8 6.5c-6.8.4-12 6-12 12.8zM227.2 693.4c0 6.8 5.4 12.5 12.2 12.8l106.8 5.1c10.2-.1 18.4-8.4 18.4-18.6 0-10.3-8.3-18.6-18.6-18.6l-106.8 6.5c-6.8.4-12 6-12 12.8zM127.1 461.3c0 6.8 5.4 12.5 12.2 12.8l238.9 5.1c10.2-.1 18.4-8.4 18.4-18.6 0-10.3-8.3-18.6-18.6-18.6l-238.9 6.5c-6.8.4-12 6-12 12.8zM127.1 613.3c0 6.8 5.4 12.5 12.2 12.8l238.9 5.1c10.2-.1 18.4-8.4 18.4-18.6 0-10.3-8.3-18.6-18.6-18.6l-238.9 6.5c-6.8.5-12 6.1-12 12.8zM31.5 536.5c0 6.8 5.4 12.5 12.2 12.8l357.2 5.1c10.2-.1 18.4-8.4 18.4-18.6 0-10.3-8.3-18.6-18.6-18.6l-357.2 6.5c-6.8.5-12 6.1-12 12.8zM480.8 558.3V373.9h28.8v77.5h90v-77.5h28.8v184.3h-28.8v-80.1h-90v80.1h-28.8zM680.1 503c.9 9.4 5 17 12.4 22.9 7.4 6 16.3 9 27.1 9 12.7 0 22.3-3.5 28.8-10.3l14.6 16.6c-11.5 13-27.1 19.5-46.7 19.4-19.2 0-34.7-6.4-46.6-19.4-11.9-12.9-17.9-29.6-17.9-50.3 0-19.7 5.4-35.6 16.2-48.1 10.8-12.3 24.8-18.5 42.1-18.5 17.4 0 31.4 6.3 42.3 19 10.8 12.7 16.2 29.3 16.2 49.6 0 1.8-.1 5.1-.5 10h-88zm60.8-22.6c-.1-9.1-2.8-16.5-8.2-22.2s-12.3-8.6-20.6-8.6c-8.5 0-15.7 2.8-21.4 8.6-5.8 5.8-9.2 13.1-10.1 22.2h60.3zM803.3 489.7c10.8-8.4 24.6-12.6 41.6-12.6 7.3 0 14 .8 20.2 2.4v-8.7c0-6.2-2.5-11.2-7.4-15-5-3.9-11.5-5.8-19.3-5.8-13 0-24.5 4.2-34.6 12.7l-12.8-18c5.3-6.2 12.5-11.2 21.7-14.9 9.1-3.7 18.6-5.5 28.5-5.5 14.9 0 27.1 4.2 36.5 12.6 9.4 8.4 14.2 19.3 14.2 32.7v88.7h-26.8v-16.8c-9.3 12.9-22 19.3-38.1 19.2-11.8 0-21.4-3.6-28.8-10.7-7.4-7.1-11.1-16.3-11.1-27.5 0-13.5 5.4-24.4 16.2-32.8zm20.9 14.1c-6 4-9 9.3-9 15.6 0 4.9 1.9 8.9 5.8 12.1 3.9 3.2 8.8 4.8 14.9 4.8 8.7 0 15.8-3.3 21.2-10 5.3-6.7 8.1-15.2 8.1-25.6-5.2-1.9-11.2-2.8-18-2.8-9.4-.2-17 1.9-23 5.9zM954.4 426.6h36.4V450h-36.4v66.6c0 10.4 6.2 18 15.3 18 5.8 0 10.3-2.1 13.7-6.3l13.2 14.9c-6.9 11.6-17.5 17.4-31.5 17.4-10.8 0-19.7-3.7-26.8-11.2-7.1-7.5-10.7-17.1-10.7-28.8V450h-21.3v-23.4h21.3V403l26.8-11.8v35.4zM1085 373.9h118.8v26.9h-90v50.6h82.7v26.7h-82.7v80.1H1085V373.9zM1285.9 548.7c-6.7 7.8-15 11.8-25.1 11.8-9.6 0-17.5-3.3-23.5-10.2-6-6.7-9.1-15.4-9.1-26.1v-157h26.7V522c0 7.3 4.3 12.5 10.8 12.5 2.8 0 5.4-1.3 7.8-4l12.4 18.2zM1319.4 503c.9 9.4 5 17 12.4 22.9 7.4 6 16.3 9 27.1 9 12.7 0 22.3-3.5 28.8-10.3l14.6 16.6c-11.5 13-27.1 19.5-46.7 19.4-19.2 0-34.7-6.4-46.6-19.4-11.9-12.9-17.9-29.6-17.9-50.3 0-19.7 5.4-35.6 16.2-48.1 10.8-12.3 24.8-18.5 42.1-18.5 17.4 0 31.4 6.3 42.3 19 10.8 12.7 16.2 29.3 16.2 49.6 0 1.8-.1 5.1-.5 10h-88zm60.8-22.6c-.1-9.1-2.8-16.5-8.2-22.2-5.3-5.8-12.3-8.6-20.6-8.6-8.5 0-15.7 2.8-21.4 8.6-5.8 5.8-9.2 13.1-10.1 22.2h60.3zM1452.4 503c.9 9.4 5 17 12.4 22.9 7.4 6 16.3 9 27.1 9 12.7 0 22.3-3.5 28.8-10.3l14.6 16.6c-11.5 13-27.1 19.5-46.7 19.4-19.2 0-34.7-6.4-46.6-19.4-11.9-12.9-17.9-29.6-17.9-50.3 0-19.7 5.4-35.6 16.2-48.1 10.8-12.3 24.8-18.5 42.1-18.5 17.4 0 31.4 6.3 42.3 19 10.8 12.7 16.2 29.3 16.2 49.6 0 1.8-.1 5.1-.5 10h-88zm60.8-22.6c-.1-9.1-2.8-16.5-8.2-22.2-5.3-5.8-12.3-8.6-20.6-8.6-8.5 0-15.7 2.8-21.4 8.6-5.8 5.8-9.2 13.1-10.1 22.2h60.3zM1598.1 426.6h36.4V450h-36.4v66.6c0 10.4 6.2 18 15.3 18 5.8 0 10.3-2.1 13.7-6.3l13.2 14.9c-6.9 11.6-17.5 17.4-31.5 17.4-10.8 0-19.7-3.7-26.8-11.2-7.1-7.5-10.7-17.1-10.7-28.8V450H1550v-23.4h21.3V403l26.8-11.8v35.4zM480.9 711.3V602.7h51.8c7.6 0 13.9 2.5 18.7 7.6 4.8 5.1 7.2 11.7 7.2 19.6 0 11.2-5.2 19.8-13.4 24.3 5.4 1.7 9.6 5.1 12.9 10 3.2 4.9 4.8 10.8 4.8 17.6 0 8.8-2.6 15.9-7.8 21.3-5.2 5.5-12 8.2-20.4 8.2h-53.8zm14.9-62.8H528c4.5 0 8.3-1.5 11.2-4.6 2.9-3 4.3-7 4.3-11.9 0-4.8-1.4-8.7-4.3-11.8-2.9-3.1-6.6-4.6-11.3-4.6h-32.2v32.9zm0 13.3v36.6h33.9c5.2 0 9.5-1.7 12.8-5.1 3.2-3.4 4.8-7.8 4.8-13.3 0-5.4-1.6-9.7-4.8-13.1-3.3-3.3-7.5-5-12.8-5h-33.9zM589.4 677.5c.3 6.5 3 11.8 8 15.9 4.9 4.2 11 6.2 18.2 6.2 8.2 0 14.5-2.3 19-6.8l7.8 8.3c-7.2 7.8-16.7 11.7-28.5 11.6-11.5 0-21-3.8-28.2-11.4-7.3-7.6-10.9-17.4-10.9-29.6 0-11.4 3.3-20.9 9.9-28.2 6.6-7.3 15.1-11 25.6-11s19 3.7 25.7 11.1c6.6 7.4 9.9 17.1 9.9 29.2 0 2-.1 3.7-.3 4.8h-56.2zm42.1-11.4c-.2-6.2-2.2-11.3-5.9-15.2-3.7-3.9-8.5-5.8-14.3-5.8s-10.8 1.9-14.7 5.8c-4 3.9-6.3 9-6.8 15.3h41.7zM705.2 706.2c-5.2 4.3-12.2 6.4-20.9 6.4-10.6 0-19.6-3.6-27.1-10.8l7.1-8.9c5.1 4.6 11.6 7 19.6 7 9.5 0 15.7-3.9 15.7-9.8 0-2.8-1.3-4.9-3.7-6.4-2.4-1.4-6.4-3.1-11.6-4.8-.6-.2-1.1-.4-1.4-.5-3.6-1.1-6.6-2.3-8.7-3.3-2.2-1-4.7-2.3-7.3-4.2-5.2-3.6-7.8-8.8-7.8-16 0-6.9 2.4-12.4 7.3-16.5 4.8-4.1 11.4-6.1 19.6-6.1 10 0 18.2 3.4 24.7 10.2l-7.2 9c-4.5-4.3-10.2-6.5-17.1-6.5-8.4 0-14 3.6-14 8.9 0 2 .9 3.9 2.7 5.5 1.8 1.6 3.5 2.7 5.1 3.3 1.5.6 4.1 1.5 7.8 2.8 3.1 1 5.7 1.8 7.5 2.5 1.8.7 4 1.7 6.5 3.1 2.5 1.4 4.5 2.9 5.9 4.4 2.8 3 5.1 7.8 5.1 13.6.1 7.2-2.6 12.8-7.8 17.1zM748.8 633.7h23.8v11.8h-23.8v41.7c0 7.3 4.4 12.2 10.9 12.2 3.7 0 6.8-1.4 9.3-4l6.9 7.4c-4.3 6.5-10.5 9.8-18.6 9.8-6.5 0-11.8-2.2-16-6.6-4.3-4.4-6.4-10-6.4-16.8v-43.7h-13.6v-11.8h13.6v-15.1l13.9-5.8v20.9zM828.5 657c0-16.4 4.8-29.8 14.3-40.1 9.5-10.4 21.9-15.5 37.2-15.5 15.2 0 27.6 5.1 37.2 15.5 9.6 10.4 14.3 23.7 14.3 40.1 0 16.4-4.8 29.7-14.4 40.1-9.6 10.4-21.9 15.6-37.1 15.6-15.2 0-27.5-5.1-37.1-15.5-9.7-10.4-14.4-23.8-14.4-40.2zm15.9 0c0 12.1 3.3 22 9.9 29.8 6.6 7.8 15.1 11.7 25.5 11.7 10.5 0 19.1-3.9 25.7-11.7 6.6-7.7 9.9-17.7 9.9-29.9s-3.3-22.2-9.9-30c-6.6-7.8-15.2-11.7-25.7-11.7-10.4 0-18.9 3.9-25.5 11.8-6.6 8-9.9 17.9-9.9 30zM947.8 618.1v-15.4h13.9v15.4h-13.9zm0 93.2v-77.5h13.9v77.5h-13.9zM1013.5 706.1c-3.8 4.3-8.5 6.5-14 6.5-5.4 0-9.7-1.8-13.1-5.5-3.4-3.6-5.1-8.3-5.1-14.2v-94.1h13.9v93.1c0 4.5 2.5 7.6 6.7 7.6 2 .1 3.7-.7 5.2-2.3l6.4 8.9zM1080.2 711.3h-14.9V602.7h46.9c9.1 0 16.5 3 22.3 9.1s8.7 13.9 8.7 23.7c0 9.6-2.9 17.5-8.7 23.7-5.8 6.2-13.2 9.3-22.3 9.3h-32v42.8zm0-56.3h30.5c5.2 0 9.5-1.8 12.8-5.5 3.2-3.6 4.8-8.4 4.8-14.3 0-5.8-1.6-10.4-4.9-13.9-3.3-3.5-7.5-5.2-12.7-5.2h-30.5V655zM1158.2 711.3v-77.5h13.9v18.6c5.1-12.6 14.9-20 26.9-20v14.5c-7.9 0-14.4 2.6-19.4 7.7-5 5.2-7.5 11.8-7.5 19.9v36.7h-13.9zM1211.5 618.1v-15.4h13.9v15.4h-13.9zm0 93.2v-77.5h13.9v77.5h-13.9zM1306 701.5c-6.6 7.4-15.6 11.1-26.8 11.1-11.4 0-20.5-3.8-27.6-11.3s-10.6-17.1-10.6-29c0-11.7 3.6-21.4 10.6-28.8 7.1-7.4 16.2-11.1 27.5-11.1 11.1 0 20.1 3.7 26.9 11.1l-8.2 8.9c-4.4-4.8-10.3-7.1-17.8-7.1-7.2 0-13 2.5-17.5 7.6s-6.7 11.6-6.7 19.5c0 8.2 2.2 14.8 6.7 19.8s10.3 7.5 17.5 7.5c7.5 0 13.5-2.3 17.8-7l8.2 8.8zM1330.1 677.5c.3 6.5 3 11.8 8 15.9 4.9 4.2 11 6.2 18.2 6.2 8.2 0 14.5-2.3 19-6.8l7.8 8.3c-7.2 7.8-16.7 11.7-28.5 11.6-11.5 0-21-3.8-28.2-11.4-7.3-7.6-10.9-17.4-10.9-29.6 0-11.4 3.3-20.9 9.9-28.2 6.6-7.3 15.1-11 25.6-11 10.5 0 19 3.7 25.7 11.1 6.6 7.4 9.9 17.1 9.9 29.2 0 2-.1 3.7-.3 4.8h-56.2zm42-11.4c-.2-6.2-2.2-11.3-5.9-15.2-3.7-3.9-8.5-5.8-14.3-5.8s-10.8 1.9-14.7 5.8c-4 3.9-6.3 9-6.9 15.3h41.8zM1503.8 703.8c-6.8 5.9-15.6 8.9-26.1 8.9-7.1 0-13.9-1.4-20.4-4-6.6-2.7-12-6.3-16.4-10.8l7.6-10.4c6.5 6.9 17 11.1 27.9 11.1 6.6 0 12.2-1.5 16.4-4.5 4.3-3 6.4-6.8 6.4-11.4 0-4.2-1.7-7.5-5.2-10.1-3.5-2.6-9.2-5.2-17-7.9-11.7-4.2-20.3-8.8-25.9-13.9-5.5-5.1-8.3-11.4-8.3-19.2 0-8.8 3.1-16.1 9.4-21.7 6.2-5.7 14.3-8.5 24.3-8.5 6.6 0 13 1.3 19.2 3.9 6.2 2.7 11.3 6.1 15.2 10.4l-7.5 10.4c-2.7-3.2-6.4-5.8-11-7.9-4.6-2-9.4-3-14.3-3-6 0-10.9 1.4-14.7 4.3-3.8 3-5.7 6.7-5.7 11.2 0 4.2 1.7 7.6 5.3 10.3 3.5 2.7 9.2 5.5 17.3 8.3 11.7 4.3 20.2 8.9 25.7 13.7 5.5 4.8 8.2 11 8.2 18.6-.2 8.9-3.6 16.3-10.4 22.2zM1540.7 677.5c.3 6.5 3 11.8 8 15.9 4.9 4.2 11 6.2 18.2 6.2 8.2 0 14.5-2.3 19-6.8l7.8 8.3c-7.2 7.8-16.7 11.7-28.5 11.6-11.5 0-21-3.8-28.2-11.4-7.3-7.6-10.9-17.4-10.9-29.6 0-11.4 3.3-20.9 9.9-28.2 6.6-7.3 15.1-11 25.6-11 10.5 0 19 3.7 25.7 11.1 6.6 7.4 9.9 17.1 9.9 29.2 0 2-.1 3.7-.3 4.8h-56.2zm42.1-11.4c-.2-6.2-2.2-11.3-5.9-15.2-3.7-3.9-8.5-5.8-14.3-5.8s-10.8 1.9-14.7 5.8c-4 3.9-6.3 9-6.9 15.3h41.8zM1620.1 671.4c6.6-4.8 15.1-7.3 25.6-7.3 5.4 0 9.9.5 13.8 1.6v-6.1c0-4.2-1.7-7.7-5-10.4-3.4-2.7-7.7-4-13.1-4-8.6 0-15.9 2.7-22.2 8l-6.9-9c3.4-3.6 7.8-6.4 13.4-8.6 5.6-2.2 11.3-3.3 17.1-3.3 9 0 16.4 2.5 22 7.4 5.7 4.9 8.5 11.4 8.5 19.2v52.2h-13.9v-12.6c-5.1 8.7-14.3 13.9-24.7 13.9-7.2 0-13.1-2.1-17.6-6.3-4.5-4.2-6.9-9.5-6.9-16 0-7.5 3.3-13.8 9.9-18.7zm10.8 7.1c-4.2 2.7-6.3 6.2-6.3 10.4 0 3.3 1.4 6.1 4.1 8.3s6.1 3.3 10.3 3.3c6 0 10.9-2.3 14.7-7 3.8-4.6 5.7-10.3 5.7-17.1-3.8-1.3-8-2-12.6-2-6.4 0-11.7 1.4-15.9 4.1zM1692.7 711.3v-77.5h13.9v18.6c5.1-12.6 14.9-20 26.9-20v14.5c-7.9 0-14.4 2.6-19.4 7.7-5 5.2-7.5 11.8-7.5 19.9v36.7h-13.9zM1806.7 701.5c-6.6 7.4-15.6 11.1-26.8 11.1-11.4 0-20.5-3.8-27.6-11.3s-10.6-17.1-10.6-29c0-11.7 3.6-21.4 10.6-28.8 7.1-7.4 16.2-11.1 27.5-11.1 11.1 0 20.1 3.7 26.9 11.1l-8.2 8.9c-4.4-4.8-10.3-7.1-17.8-7.1-7.2 0-13 2.5-17.5 7.6s-6.7 11.6-6.7 19.5c0 8.2 2.2 14.8 6.7 19.8s10.3 7.5 17.5 7.5c7.5 0 13.5-2.3 17.8-7l8.2 8.8zM1821.5 711.3V598.8h13.9v48.7c5.3-9.5 14.5-15.1 25.2-15.1 8.3 0 15 2.8 20.2 8.3 5.2 5.6 7.8 12.9 7.8 21.7v48.8h-13.9v-45.9c0-6.1-1.7-11.1-5-14.8-3.4-3.8-7.7-5.7-13.1-5.7-6.3 0-11.4 2.6-15.3 7.7-3.9 5.2-5.9 11.8-5.9 19.8v38.9h-13.9z" class="st0"/></svg>