<svg xmlns="http://www.w3.org/2000/svg" xml:space="preserve" id="Layer_1" x="0" y="0" style="enable-background:new 0 0 80 54.6" version="1.1" viewBox="0 0 80 54.6"><style type="text/css">.st3{fill:#595a5c}.st4{fill:#ea7736}.st5{font-family:&quot;ArialMT&quot;}.st6{font-size:6.12px}</style><radialGradient id="SVGID_1_" cx="283.584" cy="1981.868" r="6.639" gradientTransform="matrix(.9161 0 0 1.0432 -235.34 -2053.234)" gradientUnits="userSpaceOnUse"><stop offset="0" style="stop-color:#edbc45"/><stop offset="1" style="stop-color:#ea7736"/></radialGradient><path d="M18.5 13.9 17.1 12s8.6-8.5 14.8 4.3L29 19.2s-4.8-9.4-10.5-5.3z" style="fill:url(#SVGID_1_)"/><radialGradient id="SVGID_2_" cx="-7146.478" cy="-1712.849" r="6.635" gradientTransform="matrix(-.9161 -.0065 .00565 -1.0432 -6529.142 -1815.632)" gradientUnits="userSpaceOnUse"><stop offset="0" style="stop-color:#63ff2a"/><stop offset="1" style="stop-color:#68a02e"/></radialGradient><path d="m14.1 18 1.5 1.9S6.9 28.3.8 15.4l2.9-2.8c0 .1 4.6 9.6 10.4 5.4z" style="fill:url(#SVGID_2_)"/><radialGradient id="SVGID_3_" cx="274.869" cy="1983.534" r="10.435" gradientTransform="matrix(.9161 0 0 1.0432 -235.34 -2053.234)" gradientUnits="userSpaceOnUse"><stop offset="0" style="stop-color:#9cd0e3"/><stop offset="1" style="stop-color:#3ea9e4"/></radialGradient><path d="m5.6 13.9-1.3-2s4.5-4.5 9.2-1.9c.7.5 1.5.7 2 1.3 1.2 1.2 2 2.7 3.1 3.9 1.1 1.2 2.5 2.5 3.9 3.2 0 0 2.7 1 5.5 0l.6 1.2s-1.2 1.3-3 2.2c-3 1.5-6.6.7-8.9-1.9-1.2-1.3-2.1-2.9-3.2-4.3-.9-1-2-1.9-3.2-2.2-.6-.2-1.3-.5-2-.5-.4.1-2.8.7-2.7 1z" style="fill:url(#SVGID_3_)"/><path d="M36.4 20.8c0 1.3.7 1.9 1.8 1.9S40 22 40 20.8v-1.1l2.2-.6V21c0 2.9-1.9 4.5-4.1 4.5s-4-1.7-4-4.5V11c0-2.9 1.8-4.5 4-4.5s4.1 1.7 4.1 4.5v.7H40v-.6c0-1.3-.7-1.9-1.8-1.9s-1.8.7-1.8 1.9v9.7zM46.5 19.3v1.5c0 1.3.7 1.9 1.8 1.9s1.8-.7 1.8-1.9v-1.1l2.2-.6V21c0 2.9-1.9 4.5-4.1 4.5s-4-1.7-4-4.5V11c0-2.9 1.8-4.5 4.1-4.5 1.9 0 4.1 1.1 4.1 4.9 0 2.3-.8 3.8-2.7 5.6-.8.5-1.9 1.3-3.2 2.3zm0-2.5c.7-.6 1.4-1.1 1.9-1.5 1.1-1.1 1.5-2.3 1.5-3.7 0-1.9-.8-2.6-1.8-2.6-1.1 0-1.7.7-1.7 2 .1-.2.1 5.8.1 5.8zM56.2 6.5l.4 1.1c.8-.8 1.9-1.3 2.8-1.3 1.1 0 2 .6 2.8 1.5.8-1.1 2-1.5 3.2-1.5 1.9 0 3.4 1.4 3.4 4.5v14.3h-2.4V11.4c0-1.5-.4-2.4-1.6-2.4-.6 0-1.3.4-1.9 1.1 0 .2.1.6.1.8v14.3h-2.4V11.4C60.7 9.9 60.2 9 59 9c-.6 0-1.3.2-1.9.8V25h-2.5V6.5h1.6zM71.4 8.4c.7-1.3 2.4-2 3.9-2 2.6 0 4 2 4 5v13.7h-1.5l-.5-1c-.8.7-1.9 1.3-3.1 1.3-1.9 0-3.5-1.3-3.5-4.8 0-2.7 1.1-4.4 3.4-6.4.7-.6 1.8-1.4 2.8-2v-.6c0-1.5-.6-2.6-1.9-2.6-.9 0-1.8.6-2.2 1.4l-1.4-2zm5.7 13.3v-7.1c-.6.5-1.1.8-1.5 1.2-1.7 1.5-2.2 2.9-2.2 4.3 0 1.9.7 2.6 1.9 2.6.5.1 1.1-.2 1.8-1z" class="st3"/><text class="st4 st5 st6" transform="translate(17.868 39.86)">CONNECTICUT</text><text class="st4 st5 st6" transform="translate(7.368 47.16)">ENERGY MARKETERS</text><text class="st4 st5 st6" transform="translate(19.268 54.56)">ASSOCIATION</text></svg>