<svg xmlns="http://www.w3.org/2000/svg" xml:space="preserve" id="Layer_1" x="0" y="0" style="enable-background:new 0 0 80 54.6" version="1.1" viewBox="0 0 80 54.6"><style type="text/css">.st0{fill:#1c3d7b}.st1{font-family:&quot;ArialMT&quot;}.st2{font-size:6.12px}</style><text class="st0 st1 st2" transform="translate(27.032 39.862)">ENERGY</text><text class="st0 st1 st2" transform="translate(20.932 47.162)">MARKETERS</text><text class="st0 st1 st2" transform="translate(20.932 54.562)">OF AMERICA</text><path d="M0 1.8h17v5.8H8V12h8.1v6.2H8.5v5h9v6.3H0zM61.8 2.4c.4 2.2.9 4.5 1.3 6.7 2.1 6.1 3.6 12.6 4.8 18.7.1.6.1 1.1.1 1.6h1.2L62 1.8h-.3c0 .2 0 .4.1.6zM46.1 26.5c0-.3.1-.4.3-.6v-3c-.1-.9 0-1.9 0-2.8V1.8H37L32.7 15h-.6L27.7 1.8h-10v27.7h7.4V11.2l3.9 12h5.7l3.9-12v18.3h8.8c-.1 0-.2-.2-.3-.2-1-.5-1-1.8-1-2.8z" class="st0"/><path d="M67.3 1.8h-5.7c.1.2.1.4.2.6.4 2 .8 4 1.1 6l.4 1.5c1.9 5.7 3.3 11.8 4.5 17.5l.5 2.1H72L67.3 1.8z" style="fill:#f03047"/><path d="M67.3 1.8H73l2.9 27.7H72z" style="fill:#faf7fb"/><path d="M73 1.8h6.9v27.7h-4zM43.2 29.5l7.1-27.7H62l7.2 27.7h-8.7l-1.2-6.3h-6.7L51 29.5h-7.8zm10.1-12h5.4l-2.1-9.9h-1l-2.3 9.9z" class="st0"/></svg>