<svg xmlns="http://www.w3.org/2000/svg" xml:space="preserve" id="Layer_1" x="0" y="0" style="enable-background:new 0 0 41.1 41.2" version="1.1" viewBox="0 0 41.1 41.2"><path d="M32.3 41.2H8.8c-4.9 0-8.8-3.9-8.8-8.8V8.9C0 4 3.9.1 8.8.1h23.5c4.9 0 8.8 3.9 8.8 8.8v23.5c0 4.8-4 8.8-8.8 8.8z" style="fill:#4aace9"/><path d="M8.8 10.8s3.9 5.3 11.3 5.7c0 0-.6-3.1 1.7-5.2 1.2-1.1 2.8-1.7 4.4-1.6 1.1.1 2.4.5 3.6 1.8 0 0 2.5-.6 3.5-1.3 0 0 0 1.6-1.7 2.9 0 0 1.8-.2 2.6-.7 0 0-1.1 2-2.8 3-.1 0 .1 2 .1 2.2-.1 1.8-.5 3.5-1.3 5.1-2 4.4-6.5 7.9-11.2 8.9-4.2.9-8.5 0-12.2-2 0 0 5.3.2 7.5-2.2 0 0-3.1-.1-4.6-4.1l2.1.4s-4.1-2-4.1-6.1c0 0 1.1.5 2.1.5.1-.1-3.4-3.5-1-7.3z" style="fill:#fff"/></svg>