<svg xmlns="http://www.w3.org/2000/svg" xml:space="preserve" id="Layer_1" x="0" y="0" style="enable-background:new 0 0 80 54" version="1.1" viewBox="0 0 80 54"><style type="text/css">.st1{fill:#ff3302}.st2{font-family:&quot;Times-Roman&quot;}.st3{font-size:6px}.st4{fill:#ed1c24}</style><path d="M0 0h80v54H0z" style="fill:#fff"/><text class="st1 st2 st3" transform="translate(8.835 39.6)">OIL ENERGY SERVICE</text><text class="st1 st2 st3" transform="translate(16.326 46.8)">PROFESSIONALS</text><text class="st1 st2 st3" transform="translate(20 54)">ASSOCIATION</text><path d="M12.5 11.7 41.3.2l8.4 6.4s-7.9-5.5-37.2 5.1z"/><path d="m22.1 8.9-13.3 5 25.3 15.3s-22.3-13.8-12-20.3z"/><path d="m30 25 8.7 6.6L67 20.2S41.8 30.3 30 25z"/><path d="m71.2 17.6-13.3 4.9s12-4.8-13.8-21.7l27.1 16.8z"/><path d="M12.4 11.6 41.1 0l8.4 6.4c.1 0-7.8-5.5-37.1 5.2z" class="st4"/><path d="m22.5 8.8-13.3 5 25.3 15.3s-22.3-13.8-12-20.3z" class="st4"/><path d="m30.1 24.7 8.7 6.6L67 19.9s-25.2 10.2-36.9 4.8z" class="st4"/><path d="m70.7 17.5-13.3 4.9s12-4.8-13.8-21.7l27.1 16.8z" class="st4"/><path d="M47.5 23.9c-.1 0-.2-.1-.2-.1s-.1-.2-.1-.4l1.5-15.9c0-.2.2-.4.3-.4h7.3c.5 0 1 .1 1.3.2.3.2.6.5.8 1 .2.4.2 1 .2 1.7s-.1 1.5-.1 2.5l-.1 1c-.1.9-.2 1.7-.3 2.4-.1.7-.3 1.2-.6 1.7-.3.4-.6.7-1 .9-.3.1-.9.2-1.4.2h-4.8l-.5 4.7c0 .2-.2.4-.3.4 0 .1-2 .1-2 .1zm7.7-8.9c.2 0 .2-.1.2-.1.1-.1.1-.4.2-1.1l.1-1.3c.1-.8.1-1.2 0-1.2l-.1-.1H51l-.4 3.8h4.6z" class="st4"/><path d="M56.2 7.5c.5 0 .9.1 1.1.2.3.1.5.4.6.8.1.4.2.9.2 1.5s-.1 1.5-.1 2.5l-.1 1c-.1 1-.2 1.7-.3 2.4-.1.7-.3 1.1-.5 1.5-.2.4-.5.7-.9.8s-.7.2-1.3.2H50l-.5 5.1h-2L49 7.6l7.2-.1m-5.9 7.9h4.9c.2 0 .5-.1.5-.4.1-.2.2-.7.2-1.2l.1-1.3c.1-.7.1-1.2 0-1.4-.1-.3-.2-.4-.5-.4h-4.9l-.3 4.7m5.9-8.7h-7.3c-.3 0-.6.4-.7.8l-1.5 15.9c0 .2.1.5.2.7.1.2.3.3.5.3h2c.3 0 .6-.4.7-.8l.4-4.3H55c.6 0 1.1-.1 1.5-.3.5-.2.9-.6 1.1-1.1.3-.4.5-1.1.6-1.8.1-.7.2-1.5.3-2.5l.1-1c.1-1 .2-1.9.1-2.6 0-.8-.1-1.4-.3-1.9-.2-.6-.6-1-1-1.2-.1-.1-.6-.2-1.2-.2zm-4.9 4.9h4.1c0 .1 0 .4-.1.8l-.1 1.3c-.1.4-.1.7-.1.8H51l.3-2.9z"/><path d="M42.6 24.4c-1 0-1.9-.1-2.6-.2-.7-.1-1.2-.4-1.6-.8s-.6-.9-.7-1.6c-.1-.6-.1-1.3 0-2.2.1-.4.1-.7.1-1.1.1-.2.2-.4.3-.4h2c.1 0 .2.1.3.1s.1.2.1.4c0 .1 0 .1-.1.2v.2c-.1.4-.1.6 0 .8 0 .1.1.1.2.3.1.1.3.1.7.2.3.1.9.1 1.5.1s1.1 0 1.4-.1c.3 0 .6-.1.7-.2.1-.1.2-.2.3-.4.1-.2.1-.4.2-.8 0-.3.1-.5 0-.7 0-.1-.1-.2-.1-.2-.1-.1-.2-.1-.3-.2-.2-.1-.5-.1-.8-.1-.2 0-.5-.1-.7-.1-.3 0-.6-.1-.9-.1-.3 0-.7-.1-1.1-.1s-.8-.1-1.1-.3c-.3-.1-.6-.3-.9-.5-.3-.2-.5-.6-.6-1-.2-.4-.3-.9-.3-1.5-.1-.5-.1-1.2 0-2 .1-1 .2-1.8.4-2.5s.5-1.3 1-1.7c.4-.4 1-.7 1.7-.9h2.5c.9 0 1.7.1 2.3.1.6.1 1.1.4 1.4.7.4.4.6.8.7 1.5.1.6.1 1.2 0 2 0 .3-.1.5-.1.7 0 .2-.1.4-.1.5-.1.2-.2.4-.3.4h-1.9c-.1 0-.2-.1-.3-.1s-.1-.2-.1-.4c0-.1 0-.1.1-.2V11.3c0-.1-.1-.1-.1-.1s-.2-.1-.6-.2c-.3-.1-.7-.1-1.3-.1-.6 0-1.1 0-1.5.1-.3.1-.6.1-.8.2-.2.1-.2.2-.3.4s-.1.4-.1.7c0 .2-.1.4 0 .6 0 .1 0 .1.1.2s.1.1.2.1c.1.1.3.1.5.2s.6.1 1 .2.9.1 1.3.1c.8.1 1.5.1 2 .3.6.1 1 .4 1.4.8.3.4.5.9.6 1.6.1.6.1 1.4-.1 2.3-.1 1-.2 1.9-.5 2.6-.2.7-.6 1.3-1 1.7-.4.4-1 .7-1.7.9-.7.4-1.5.5-2.4.5z" class="st4"/><path d="M44.1 7.5c.9 0 1.7.1 2.2.1.6.1 1 .3 1.3.6s.5.7.6 1.2.1 1.2 0 1.9c0 .2-.1.4-.1.7 0 .1-.1.4-.1.5h-1.9c0-.1 0-.1.1-.3v-1c0-.1-.1-.3-.3-.4s-.4-.2-.7-.2c-.3-.1-.8-.1-1.4-.1-.6 0-1.1 0-1.5.1s-.7.1-.9.3c-.2.1-.3.3-.5.5-.1.2-.1.5-.2.9 0 .3-.1.5-.1.7 0 .1.1.3.1.4s.2.2.3.3.3.1.5.2c.3.1.6.1 1 .2s.9.1 1.4.1c.8.1 1.5.1 2 .3.5.1.9.4 1.2.7.3.4.5.8.5 1.4s.1 1.3-.1 2.3c-.1 1-.2 1.8-.5 2.5-.2.7-.5 1.2-.9 1.5-.4.4-.9.7-1.5.8s-1.4.2-2.3.2c-1 0-1.8-.1-2.4-.2-.6-.1-1.1-.4-1.4-.7-.3-.3-.5-.7-.6-1.3-.1-.5-.1-1.2 0-2 .1-.4.1-.7.1-1h1.9c0 .1 0 .1-.1.2v.2c-.1.4-.1.7 0 .9.1.2.1.4.3.6.2.1.5.2.9.3s.9.1 1.5.1 1.1 0 1.4-.1c.3-.1.6-.1.9-.3.2-.1.3-.3.4-.6.1-.2.1-.5.2-.9 0-.3.1-.6 0-.8 0-.2-.1-.4-.2-.5-.1-.1-.3-.2-.5-.3-.2-.1-.5-.1-.9-.1-.2 0-.5-.1-.7-.1-.3 0-.6-.1-.9-.1-.3 0-.7-.1-1-.1-.4-.1-.7-.1-1.1-.3-.3-.1-.6-.2-.8-.4s-.4-.5-.6-.8c-.1-.4-.2-.8-.3-1.3s-.1-1.1 0-1.8c.1-.9.2-1.7.4-2.4s.5-1.1.9-1.5.9-.6 1.5-.7c1-.3 1.9-.4 2.9-.4M44.1 6.7c-1.1 0-1.9.1-2.6.2-.7.1-1.4.4-1.8.9-.5.4-.9 1.1-1.1 1.9-.2.7-.3 1.5-.4 2.5-.1.8-.1 1.5 0 2 .1.7.2 1.2.3 1.6.2.5.5.9.7 1.2s.6.4 1 .6l1.2.3c.4.1.7.1 1.1.1.3 0 .6.1.9.1.2 0 .5.1.7.1.4.1.6.1.7.1.1 0 .1.1.2.1v.6c-.1.4-.1.6-.1.7 0 0 0 .1-.1.1-.1.1-.2.1-.6.1-.3.1-.8.1-1.4.1-.6 0-1.1 0-1.5-.1-.4-.1-.5-.1-.6-.1V18.8s.1-.1.1-.2c0-.5-.3-.9-.7-.9h-1.9c-.3 0-.6.3-.7.7-.1.4-.1.7-.1 1.1-.1.9-.1 1.7 0 2.3.1.7.4 1.4.9 1.8.4.4 1 .7 1.7.9.7.1 1.5.2 2.6.2 1 0 1.8-.1 2.4-.2.7-.1 1.3-.5 1.8-.9s.9-1.1 1.1-1.9c.2-.7.4-1.6.5-2.7.1-1 .1-1.8.1-2.5-.1-.8-.3-1.4-.7-1.9-.3-.4-.9-.8-1.5-.9-.6-.1-1.3-.2-2.1-.3-.5 0-.9-.1-1.3-.1-.3 0-.7-.1-.9-.1s-.3-.1-.4-.1v-.6c0-.3.1-.4.1-.6 0-.1.1-.1.1-.1.1-.1.3-.1.7-.2.3-.1.9-.1 1.5-.1s1 0 1.3.1c.2 0 .3.1.4.1V12.4c-.1.3 0 .5.1.7s.3.4.5.4h1.9c.3 0 .6-.3.7-.7.1-.1.1-.4.1-.6s.1-.4.1-.7c.1-.9.1-1.6 0-2.2-.1-.7-.4-1.3-.9-1.7-.4-.4-.9-.6-1.6-.7-.8-.2-1.5-.2-2.5-.2z"/><path d="M30.1 23.5c-.1 0-.2-.1-.2-.1-.1-.1-.1-.2-.1-.4l1.6-15.1c0-.2.2-.4.3-.4h7.9c.1 0 .2.1.2.1s.1.2.1.4l-.2 1.7c0 .2-.2.4-.3.4l-5.8.1-.3 3.7 5.2.3c.1 0 .2.1.2.1s.1.2.1.4l-.1 1.5c0 .2-.2.4-.3.4l-5.4-.2-.5 4.6 5.6-.1c.1 0 .2.1.2.1s.1.2.1.4l-.2 1.7c0 .2-.2.4-.3.4h-7.8z" class="st4"/><path d="m39.6 7.9-.2 1.7-6 .1-.5 4.5 5.6.4-.2 1.4-5.7-.1-.6 5.5 6-.1-.2 1.7h-8l1.6-15.1h8.2m0-.9h-7.9c-.3 0-.6.3-.7.7l-1.6 15.1c0 .2.1.5.2.7.1.2.3.3.5.3h8c.3 0 .6-.4.7-.8l.2-1.7c0-.2-.1-.5-.2-.7-.1-.1-.3-.3-.5-.3l-5.3.2.3-3.7 5.1.1c.3 0 .6-.4.7-.8l.1-1.5c0-.2-.1-.5-.2-.7-.1-.1-.3-.3-.5-.3l-4.8-.3.3-2.8 5.4-.1c.3 0 .6-.3.7-.7l.2-1.6V8c0-.6-.3-1-.7-1zm0 1.8z"/><path d="M24.7 23.9c-.8 0-1.5-.1-2.1-.1-.6-.1-1.1-.2-1.5-.4-.5-.2-.7-.6-1-1-.2-.4-.4-.9-.5-1.6-.1-.6-.1-1.3-.1-2.2.1-.8.1-1.7.2-2.8s.2-2 .3-2.8c.1-.8.3-1.5.5-2.2.2-.7.5-1.2.7-1.5.3-.4.7-.7 1.1-1 .5-.2 1-.4 1.6-.5.6-.1 1.3-.1 2.2-.1.8 0 1.5.1 2.1.1.6.1 1.1.3 1.5.5.5.2.8.6 1 1 .2.4.4.9.5 1.6.1.6.1 1.3.1 2.2-.1.8-.1 1.7-.2 2.8s-.2 2-.3 2.8c-.1.8-.3 1.5-.5 2.2s-.5 1.2-.7 1.5c-.3.4-.7.7-1.1.9-.5.2-1 .4-1.6.4-.7.2-1.4.2-2.2.2zm.7-13c-.3 0-.6 0-.9.1-.3.1-.6.2-.8.4-.2.2-.3.6-.5 1-.1.5-.2 1.1-.3 1.9l-.2 2.3c-.1.7-.1 1.4-.1 1.9 0 .4.1.8.2 1 .1.2.3.4.7.5.3.1.9.2 1.5.3h.6c.3 0 .7 0 .9-.1.3-.1.6-.2.8-.4.2-.2.3-.6.5-1 .1-.5.2-1.1.3-1.9l.2-2.3c.1-.7.1-1.4.1-1.9 0-.4-.1-.8-.2-1s-.3-.4-.7-.5c-.4-.2-.9-.2-1.5-.3h-.6z" class="st4"/><path d="M26.1 8c.8 0 1.5.1 2 .1.6.1 1 .2 1.4.4.4.2.7.5.9.9.2.4.3.9.4 1.5.1.6.1 1.2.1 2-.1.8-.1 1.7-.2 2.8s-.2 2-.3 2.8c-.1.8-.3 1.5-.5 2-.2.6-.4 1-.7 1.4-.3.4-.6.7-1 .9-.4.2-.9.4-1.5.4s-1.3.1-2.1.1-1.5-.1-2.1-.1c-.6-.1-1-.2-1.4-.4-.4-.2-.7-.5-.9-.9-.2-.4-.3-.8-.4-1.4-.1-.6-.1-1.2-.1-2 .1-.8.1-1.7.2-2.8s.2-2 .3-2.8c.1-.8.2-1.5.4-2s.4-1 .7-1.5c.3-.4.6-.7 1-.9.4-.2.9-.4 1.5-.4.7 0 1.5-.1 2.3-.1m-.6 12.7c.4 0 .7 0 1-.1.4-.1.7-.3 1-.6s.4-.7.6-1.2c.1-.5.2-1.2.3-2l.2-2.3c.1-.8.1-1.5.1-2s-.1-.9-.3-1.2c-.2-.3-.5-.5-.9-.7-.4-.1-.9-.2-1.5-.3h-.6c-.4 0-.7 0-1 .1-.4.1-.7.3-1 .6-.2.3-.4.7-.5 1.2s-.2 1.2-.3 2l-.2 2.3c-.1.8-.1 1.5-.1 2s.1.9.3 1.2.5.6.9.7.9.2 1.5.3h.5m.6-13.6c-.9 0-1.6.1-2.2.1-.6.1-1.2.3-1.7.5-.5.3-.9.7-1.3 1.1-.3.4-.6 1-.8 1.7-.2.7-.3 1.4-.5 2.3-.1.8-.2 1.7-.3 2.8s-.2 2-.2 2.9c-.1.9 0 1.6.1 2.3.1.7.2 1.3.5 1.8s.7.9 1.1 1.2c.5.2 1 .4 1.7.5.6.1 1.3.1 2.2.1s1.5-.1 2.2-.1c.6-.1 1.2-.2 1.7-.5s.9-.7 1.3-1.1c.3-.4.6-1 .8-1.7.2-.7.3-1.4.5-2.3.1-.8.2-1.7.3-2.8.1-1.1.2-2 .2-2.8.1-.9 0-1.6-.1-2.3-.1-.7-.4-1.3-.6-1.8-.3-.5-.6-.9-1.1-1.2-.5-.3-1-.4-1.6-.5-.6-.1-1.3-.2-2.2-.2zm-.6 12.8H25c-.6-.1-1-.1-1.4-.3-.2-.1-.4-.2-.5-.4-.1-.1-.1-.4-.1-.8s0-1.1.1-1.8l.2-2.3c.1-.7.2-1.4.3-1.8.1-.4.2-.7.3-.8.1-.1.3-.3.6-.4.2-.1.5-.1.9-.1h.6c.6.1 1 .1 1.4.2.2.1.4.2.5.4.1.1.2.4.2.7 0 .4 0 1.1-.1 1.8l-.3 2.4c-.1.7-.2 1.3-.3 1.8-.1.4-.2.7-.3.8-.2.1-.3.3-.6.4-.5.2-.7.2-1 .2z"/></svg>