<svg xmlns="http://www.w3.org/2000/svg" width="21" height="20" fill="none" viewBox="0 0 21 20"><path fill="#060D19" d="M.562 4.06c1.046 3.007 3.248 6.424 6.35 9.526 3.103 3.103 6.52 5.305 9.528 6.351.408.142.86.04 1.167-.265l2.08-2.08.486-.486a1.123 1.123 0 0 0 0-1.587L16.952 12.3a1.123 1.123 0 0 0-1.588 0l-.873.873a1.275 1.275 0 0 1-1.684.104 32.034 32.034 0 0 1-2.96-2.622 32.034 32.034 0 0 1-2.623-2.961 1.275 1.275 0 0 1 .104-1.684l.873-.873a1.123 1.123 0 0 0 0-1.587L4.98.328a1.123 1.123 0 0 0-1.587 0l-.485.485L.827 2.894A1.124 1.124 0 0 0 .562 4.06Z"/></svg>