<svg xmlns="http://www.w3.org/2000/svg" width="28" height="21" fill="none" viewBox="0 0 28 21"><path fill="#2E2C3A" d="M15.7 20.675H6.76v-1.6h8.36v-9.63c0-1.75-1.19-3.24-2.88-3.63l-.78-.18.42-1.3.72-.07c2.43.56 4.12 2.7 4.12 5.19v10.22c0 .56-.46 1.02-1.02 1.02v-.02Z"/><path fill="#FF8137" d="M13.08 17.215h-.01l-11.39-.09c-.45 0-.86-.18-1.18-.5a1.69 1.69 0 0 1-.48-1.18l.05-5.81c0-.45.18-.86.5-1.17.31-.31.73-.48 1.17-.48h.01l11.39.09c.92 0 1.66.76 1.65 1.68l-.05 5.81c0 .92-.76 1.65-1.67 1.65h.01Zm0-1.6s.07-.03.07-.07l.05-5.81-11.46-.16-.12 5.88 11.46.16Z"/><path fill="#FF8137" d="M7.4 13.505.96 9.825l.79-1.39 5.66 3.24 5.8-3.21.78 1.41-6.59 3.63Z"/><path fill="#FF8137" d="m4.804 10.905-4.038 4.41 1.18 1.08 4.038-4.41-1.18-1.08ZM10.03 10.94l-1.196 1.063 3.98 4.477 1.195-1.063-3.98-4.477Z"/><path fill="#2E2C3A" d="M24.13 2.915H19.7V.305h4.43l-1.59 1.31 1.59 1.3Z"/><path fill="#2E2C3A" d="M21.3 1.875h-1.6v8.12h1.6v-8.12Z"/><path fill="#2E2C3A" d="M22.55 4.115H12.21c-1.44 0-2.81.54-3.85 1.53-.28.26-.53.55-.74.86h2.22c.69-.51 1.51-.8 2.37-.8h10.34a3.73 3.73 0 0 1 3.73 3.73v9.63H6.61v1.6h20.25c.56 0 1.02-.46 1.02-1.02V9.425c0-2.94-2.39-5.33-5.33-5.33v.02Z"/></svg>