<svg xmlns="http://www.w3.org/2000/svg" width="22" height="22" fill="none" viewBox="0 0 22 22"><path fill="#0E8BDE" d="M18.938 13.51c-1.26 0-1.88.494-2.415.89-.466.352-.803.606-1.545.606-.742 0-1.078-.254-1.553-.606-.535-.396-1.19-.89-2.45-.89-1.26 0-1.915.494-2.45.89-.466.352-.803.606-1.545.606-.742 0-1.078-.254-1.544-.606-.535-.396-1.156-.89-2.407-.89v5.616h15.91V13.51Z"/><path stroke="#0E8BDE" stroke-miterlimit="10" stroke-width="1.6" d="M1.677 9.596v9.881c0 .337.142.666.385.902.25.236.585.371.937.371h16.106c.351 0 .686-.135.937-.37.25-.237.385-.566.385-.903V4.773a1.27 1.27 0 0 0-.385-.902 1.368 1.368 0 0 0-.937-.37H5.827"/><path stroke="#0E8BDE" stroke-miterlimit="10" stroke-width="1.6" d="M20.427 9.596v9.881c0 .337-.142.666-.385.902a1.368 1.368 0 0 1-.937.371H2.999c-.352 0-.686-.135-.937-.37a1.236 1.236 0 0 1-.385-.903V4.773c0-.337.142-.666.385-.902.25-.236.585-.37.937-.37h13.278M3.45 1.25h6.204M4.677 2.75h3.75"/></svg>