<svg xmlns="http://www.w3.org/2000/svg" width="54" height="18" fill="none" viewBox="0 0 54 18"><path fill="#2E2C3A" d="M43.896 13.186c-1.655-2.226.305-7.459 3.045-8.049L54 7.82C53.448 3.691 50.1.438 45.932.057a8.97 8.97 0 0 0-7.84 3.101 4.573 4.573 0 0 1-3.5 1.599H4.966c-1.18 0-2.226.476-3.006 1.237-1.675 1.674-1.656 4.433.057 6.07a4.29 4.29 0 0 0 2.95 1.18h29.625c1.332 0 2.626.589 3.501 1.597 1.655 1.922 4.11 3.159 6.85 3.159.342 0 .666-.019.99-.057a8.999 8.999 0 0 0 5.004-2.112l-7.04-2.664v.019ZM6.051 10.027c-.552.552-1.465.552-2.036 0-.552-.551-.552-1.465 0-2.035.552-.571 1.465-.552 2.036 0 .552.551.552 1.465 0 2.035Z"/></svg>