<svg xmlns="http://www.w3.org/2000/svg" viewBox="0 0 379.88 289.48"><g id="Layer_2" data-name="Layer 2"><g id="Hamburger"><path d="M314.43,277.63l.09-.49.24,0-.15-.53-.87.6a21.9,21.9,0,0,0-3.63.37l-.25-.05-.66.9-1.32.27a2.43,2.43,0,0,1-.92.85l-6.89,1.56,1.14.71c3.51-1,6.47-1.71,9.55-3.62l3.67-.61Zm-40.06,2.19a4.71,4.71,0,0,1-4,.81l-.54.16c-.75,1.66-.67,3.41-.93,5.18a3.54,3.54,0,0,0-1.74,1.21,5.57,5.57,0,0,1,.09,2.3c3.17-1.84,5.57-3.17,7.94-5.94l.08-3.29Zm56.15-8.19a10.14,10.14,0,0,1-2.69.79c-3.21,2.94-10.5,7-15,5.69l.36.82c4.13-.24,9.75-1.94,13-4.51l.78-.12a25,25,0,0,1,8.12-4.14l.62-.65,1.66-.71.09-.49-.79.11C334.73,269.57,332,269.91,330.52,271.63Zm48.62-25.82a9.92,9.92,0,0,0-2.31.1,2.83,2.83,0,0,1,.07,1l-1.73-.31-.54.16-.22,1.23-1-.18A10.55,10.55,0,0,0,371,250.2a4.74,4.74,0,0,1-3.22,1,15.13,15.13,0,0,0-2-3.15l-.75-.13a5.12,5.12,0,0,0-.57,3.19,10.69,10.69,0,0,0-2.64-2.25l-.59.4-.13.74.16.53-2.48,1.09-.4-.59-.12-.78-.44-.34-.83.37.56,1.11-.67.89a15.41,15.41,0,0,0-4.54,4c.08.52.16,1,.23,1.56a10.44,10.44,0,0,1-2.77,1.29l-1.27,0a5.11,5.11,0,0,0-1.93-.6l-.92.85-.44-.33-1-.18-.53.16.42-.94a8.66,8.66,0,0,1,2.91-2l1-1.34c.15-.39.31-.8.47-1.19l.29-.21.74.14c.58-.51,1.18-1,1.79-1.46a4.52,4.52,0,0,1,.56,1.12l.45.33.33-.44a8.6,8.6,0,0,1-.51-1.36,2.85,2.85,0,0,1,.51-1.44,4.58,4.58,0,0,1,1.56-.23l.34-.45-.25,0a3.6,3.6,0,0,1-1.05-1.21,39.8,39.8,0,0,1,4.92-4.71l.81,1.16a3.26,3.26,0,0,0,1.4-.76c.26-.46.51-.92.76-1.39l-.4-.58a2.84,2.84,0,0,0-1.43-.51,18.92,18.92,0,0,0-5.41,4.61,12.29,12.29,0,0,0-3.26,1.2l-.81,1.63-2.81,1.53-2.64,3.34c-7.82,2.29-15,2.15-23.11,2.7l.36.82-.05.25L321,258l-.49-.09.22-1.23-.7-.38c-.63.34-1.28.64-1.94.92l.32,1.07-.43.94-.91.85-2.2.88c-2.55-.76-5.16-1.39-7.74-2.16l-1,.07-.34.45,1.06,1.2.42-.94.7.38.6.88-.17,1-2.22-.4-.62.65a8.31,8.31,0,0,0-1.1-1l.47-1.19-.9-.67-1.28,0L302,260.4a6.15,6.15,0,0,0,1.17,2l-.34.45a9.11,9.11,0,0,0-1.92-.6l.08-.5-2.45-.44-2.69.78-1.38,2,.7,3.18-.79.12a22.83,22.83,0,0,0-2.76-3.05,3.08,3.08,0,0,0-1.13,2.09l1.68.56a2.9,2.9,0,0,1,0,1.52l-.58.4-1.17-2-.78.12-.38.69a6.69,6.69,0,0,1,.05,2.56,7.87,7.87,0,0,0-2.58-1.23l-1.61.47-.27,1.47-2.46-.44-1.16.81-1.78,4.26-.88.6,0,.25-.29.2-.14.74-1.33,1.79a5.18,5.18,0,0,0,.13,2.07l1.5,1.53-.22,1.24a27,27,0,0,0,3.18-.7,4.22,4.22,0,0,1,1.94-.93l.45.34.54-.16.38-.69-.61-.88-.49-.08a1.87,1.87,0,0,1-.36-.83,6.35,6.35,0,0,1,3.06-1.48l2.47.44.89.67-.09.5.4.57,0,.26c-2.68,1.15-5.6,2-8,3.64l1.48.27A45.75,45.75,0,0,1,298.91,282l0-.24a14,14,0,0,0-4.9.38l-1.14-.7.17-1c4.38-1,8.58-2.53,13-3.11,2.4-.31,7.26-2.1,8.61-4.18l4.19.75.58-.4a19.34,19.34,0,0,1,.11-2l.53-.16.74.13.45.34.74.13,2.68-.79.38-.7c2.35-.47,4.34-.27,6.4-1.64a4,4,0,0,0,2.71.49l.86-.61.18-1-.6-.88c2.72-.36,5.39-1.1,8.12-1.33l-.38.7a31,31,0,0,1-3.27,1.18l-.24,0-.3.2.16.54.5.09c2.8-1.53,5.63-3.12,8.81-3.76q1.14-1,2.37-1.86a2.36,2.36,0,0,0-.57-1.11l-.11-.79.34-.44a4.61,4.61,0,0,1,1.81-.19l.45.34.11.78-.67.9,1-.07,1.5-1.26c4.86-1.28,9.39-5.07,13.76-7.56,2.08-1.18,4.22-1.48,6.18-2.91a42.44,42.44,0,0,1,5.21-3.56l.38-.69Zm-98.58,1.06a10.52,10.52,0,0,0-2.67-3.53l-.39-2.11a2.44,2.44,0,0,1-.56-1.11,4.08,4.08,0,0,1,1.77-2.73l.27,1.32a6.89,6.89,0,0,0-.65,2.17c1,1.71,2.73,2.62,3.81,4.25,1,3.47,1,6.89,1,10.48s-2.2,6.84-2,10.18c-1.64,3.1-3.47,6.23-3.3,9.83l1.16-.81a53.67,53.67,0,0,1,2.25-5.44,8.11,8.11,0,0,1,6.31-1.15,7.55,7.55,0,0,1-1.08-2.48l.09-.5.54-.15.74.13.26-1.47a45.63,45.63,0,0,1,3-4,4.61,4.61,0,0,1,1.81-.18,7.45,7.45,0,0,1,1.19-2.33l-.16-.54-.45-.33.33-.45.25.05a3.46,3.46,0,0,0-.76-1.41l-.25-.05-3-4.36c3.62-2.52,7.95-4.82,11.09-7.92-1.22-1.45-2.09-3.12-3.23-4.65-.38-16.2.11-32.53.39-48.74l-1.5-1.54c2.57-14.28,6.13-28.37,8.7-42.66l.67-.89c-.44-1.27-.89-2.54-1.34-3.81a17.24,17.24,0,0,0,.46-4c-2.29-14-.85-29.12-1.87-43.3l-.4-.58c-1.15-1.11-1.51-2.61-2.29-4l-1.49-.27L299,88l-.24,0-.58.41-.05.25-.34.44.08,1-.34.45-.05.25a9.3,9.3,0,0,1-1.2,1l-.25,0c-3-4.32,1.38-9.41,1.25-14A12.22,12.22,0,0,0,296,75.25a13.32,13.32,0,0,0,.29-3l-.16-.54,0-.25a1.76,1.76,0,0,0-.64-.63,17.83,17.83,0,0,1-1.23-7.33,2.4,2.4,0,0,0-1-1.45,4.54,4.54,0,0,0-.53-1.37c1.06-3,2.19-6.27,2.22-9.51a14,14,0,0,1,1.59-1.75l.54-.16.33-.45c.4-2.71-.21-4.94-.93-7.54.41-2.39,1.53-4.34,1.49-6.85-1.24-4-4.67-6.47-4.63-11,0-2.94.87-6.25,1.39-9.16l-.16-.54.14-.74c-.73-.85-1.42-1.74-2.07-2.66l.09-.49-.2-.3L293,7.07l.72-1.14.44-2.46L294,3.18a20.52,20.52,0,0,0-.7-3.18c-12.33.17-25.08,1.2-37.37,2.35-10.36,1-22,2.29-32.35.85-9.29,5-17,9.94-24.65,17.53-3.76,3.76-7.48,7.49-11.38,11.12-3.36,3.12-5,8-7.57,11.55-4.77,1.76-10.92,4.41-14,8.66l.63,2.14,0,.25-.72,1.15c-2.17,1.42-5.21,1.64-7,3.56l-.18,1a69.43,69.43,0,0,0-10.85,15.76c-3.08,5.89-6.74,11.65-9.42,17.71l-.58.41-.25,0-1.16.82-55.16.55c-9.86.11-19.72.2-29.58.07-4.19-.06-9.15,3.58-12.75,5.32s-7.13,3.66-10.81,5.32c3.24,6.44,7.58,13.55,5.61,21.09l-.34.45-.27,1.48a6.44,6.44,0,0,0,1.82,2.61c.11.36.21.72.32,1.08l-.43.94,0,1.28.36.83c1.46,1.54,3.24,2.32,5,3.43l.32,1.07L40,143c-4.46,6.76-11.9,9.21-19.05,12.58C14,158.85,7.17,162.08.33,165.39c-1,11.33.87,23-.33,34.25,11.64.46,23.41.41,35.05.27,29.52-.35,59.05-.33,88.57-.68,14.53-.17,29.23-.3,43.74-1.13,14.11-.81,29,.58,42.94-1.51l.07,1c1.21.75,2.46,1.43,3.67,2.18.37,1.31.58,2.63.82,4l.65.63,2.64-.54.73.13a4.93,4.93,0,0,0,2.29,1.43,4.54,4.54,0,0,0,1.25,1.5l.75.13c-.49.66-1,1.34-1.39,2a13.49,13.49,0,0,1,2.57,1.23,5,5,0,0,1,.14,2.06l-.62.65-.09.49c.89,2.59.33,5.1.63,7.74,2,2.18,2.5,5.28,4.8,7.22a11.18,11.18,0,0,1,2.87,1l.36.83.89.67a7.36,7.36,0,0,0,3.33-.17l1.19.47.4.58.5.09a2.44,2.44,0,0,1,1.11-.56l.45.34a7.47,7.47,0,0,0,.52,1.36,5.18,5.18,0,0,1,1.68,3.35c13,7.12,26.11,14.17,39.14,21.28C281.84,254.24,280.79,250.42,280.56,246.87Z"></path></g></g></svg>