<svg xmlns="http://www.w3.org/2000/svg" viewBox="0 0 486.08 292.97"><g id="Layer_2" data-name="Layer 2"><g id="Hamburger"><path d="M418.8,264.88l-1.6-2.58-1.86,1.77-2.18,3.15L411.3,269l1.06,1.7,1.62,2.56,2.61,1.32,1.39.32,1-1.23-.05-2.92Zm64.6,17.68-4.13-7.51-2.58-7.89-.54-.86-1.22-1-.53-.87-1.55.39,1.83,4.8-1,4.16-4,7.84L472.3,280l3.19-4.39,2.4-.9-.63,2.77-1.34,2.61-1.85,1.76-3.26,1.46-1.7,1.06-.85.54-.86.54-1.22-1-1.38-.31-4.33-.25L449,286.37l-.16.69,14.94,4.87,7.79,1,7.58-1.18,6-3.75Zm-78.57-17.21-2.08-.48L401,263l2.56-1.6,1-1.23.47-2.09-1.6-2.56-2.09-.48-1,1.24-1.17,1.91-2.57,1.62,1.81-4.7-2.08-.48L389,258.08l-4.05,4.9-1.7,1.08-1,1.22-3.67,6.46-1.33,2.62-2.41.91-8.95.87-.16.69,1.93,1.17,2.83,3.56,1.07,1.7,2.62,1.34,1.54-.39,2.72-2.29,2.72-2.31,4.1-2,3.94-1.28,19.16-.74,2.4-.91-1.57-9.12Zm77.1-46.65-.7-.16-1.11,4.86-4.72,14.26,2.41-.91L481,225.8l2.35-3.85L483,220.4l-.54-.84Zm-1.8-5.48c1.3-.32,3.67.78,5,1.08.38-7.68,1.62-16.27-1.17-23.64-2.56-.58-3.25.25-5.49,1.66.75-3.27.77-6.6,1.52-9.86,1.46,1.54,2.91,2.9,5.08,3.35a1.34,1.34,0,0,1,1-1.24c-3.77-6-5.51-13-7.85-19.71-2.12-6-5-10.23-9.33-15a18.7,18.7,0,0,0-7-5.26l-5.45-2.59c-1.41-.67-1.55-1.84-3.21-2.22s-3.54.22-5.2.43c-1.83.25-1.89-.8-3.49-1-2.74-.26-3.77,3.7-4.21,5.62,2.11-.06,3.82,2.9,5,4.42,1.72,2.25,2.7,2.58,5.34,1.58l.32-1.38c-.95.82-1.84.31-2.94.06.42-.77,1.86-4.48,2.65-4.56,1.69-.16,3.66-.85,5.12.11,1.19.79,4,1.88,4.43,3.3.59,2,1.11,3.95,1.84,5.86A88.94,88.94,0,0,1,465.57,165c.84,3.47.57,7.13.64,10.68a10.06,10.06,0,0,0,1.5-5.17c.23-2.33.39-2.6,2.1-4.24a15.41,15.41,0,0,0,7.15,3.83l-.31,1.4c-1.37.52-3.22,1.84-4.64,1.12,2.35,3.09,3.36,4.39,3.88,8.19.31,2.29.72,6-.32,8.08-1.38,2.73-2.08,5.67-5.3,6.45s-4.93,2.21-7.91,3.56-6.72,2.2-10,3.27c-2.63.85-4.75,2.42-7.09,3.89-1.93,1.21-4.31,2.93-6.6,3-1.93,0-7.27.92-8.27-1.39,2.77-1.75,5.81-.67,8.58-2.42l-12.75-.67c-3.15-.17-6.53-.44-9.3-2.2-5.1-3.25-15-7.58-13.24-15.23a20.61,20.61,0,0,0-.35-11.22c-.59-2.19-2.05-8.7-5.5-8.51-1.94.1-3.89.15-5.82.34s-2.57-.65-4-1.92c-2.8-2.58-5.6-5.15-8.39-7.74l1-1.22a1.85,1.85,0,0,0,2.24-.22l1.23,1c.39-2.71,0-7.79,2.22-9.7,2.71,1.69,3.6,5.59,4.66,8.37a7.64,7.64,0,0,0-3.26,1.45c3.21.74,5.47,1.67,6.36-2.2-1.91-.24-3.83-5.13-4.8-6.68-1.7-2.71-1.72-3.19-1-6.33a39,39,0,0,1-6.3-8.14c-1.13-1.8-3.57-5.81-5.74-6.28,0-1.82-.07-3.63-.11-5.44,0-1.31-1.72-2.84-2.46-3.81a28.35,28.35,0,0,0-6.93-6c-1.2-.83-3.64-.89-5.05-1.22a10.09,10.09,0,0,1-4.17-1.94c-2.59-1.79-4.73-4.27-7-6.45.34,3.58,1.55,6.47,4.65,8.38a8.68,8.68,0,0,1-2.34,3.84l-1.61-2.55c-1.55,1-4.9,4-6.66,3.59l-.15.68c-1.73-.39-3.24-.74-2.05-2.7s.76-2.34,0-4.35a18.76,18.76,0,0,1-5-.4l.41-5c-2.1,1.33-5,3.53-6.34,0-1.06-2.78.11-4.64,3.13-5.08,0-2.5-2.46-2.76-4.38-3.2l1.33-2.61c2.37,1.45,4,2.56,6.79,2.28-1.21-1-2.81-1.81-2.84-3.56,3.14-1.44,4.37,1.26,5.77,3.49l1.55-.38c-1.73-2.73-1.73-5.81-2.53-8.89-.92-3.58.08-5,3.2-7l4.06,4.58,3.25-1.45c-1.87-1.14-3.58-1.92-4.75-3.79s1-3.65,2.67-3.27c1.89.43,3.72-2.23,4.87-3.43.64-.67.65-1.15,1.47-1.71s1.65-.36,2.4-.91q-1.35-2.13-2.68-4.26a16.66,16.66,0,0,1-4.58,4.07c.48-2.07.6-4.16,2.67-5.24l-1.23-1c6.86-5.81,16.18-6.88,24.69-9,.18-2,2.71-6.71,5.06-6.15l-.16.7c2.5.57,3.12.71,4.8-1.33,1.42-1.72,2-3.55,4.43-3.87l.32-1.39-1.23-1,.64-2.78c-1.1-1.61-2.21-.17-3.39-1.14-1.45-1.2-1.17-2.51-1.21-4.3-2.37,1.48-4.7,2.53-6.16,4.94-.75,1.23.24,5-.16,6.76l-2.62-1.32-.22-2.25c-2.09-.26-4.17-.53-6.26-.78-1.61-.21-2.69-1.89-3.83-3,1.75.75,3.2-.23,4.63-1.14-2.39-1.22-6.05-2.26-8-4.11-.88-.86-2.72-2-2.94-3.22-.3-1.62-.6-3.25-.89-4.86,2.86,1.75,4.4,4.59,6.36,7.29,1-2-1-5.39-1.61-7.3-.83-2.52-1.23-5.18-3.08-7.12-.71-.76-.68-2.58-1.54-3.05s-1.43.62-2.44.11c-2-1-3.67-2.26-5.57-3.41,2.22,0,7,1.2,7.65-1.53.57-2.53-1.8-5.38-1.11-7.94l-4.64,1.14c-4-1-7.81-3.62-11.92-1.64-3.87,1.87-11.9,4-14,8.12-1,2-2.56,4.05-4.85,4.61-1,.26-2.19-.65-3.24-.55a23.18,23.18,0,0,0-3.32.53c-2.3.56-3.32,2.5-4.39,4.27a8.52,8.52,0,0,0-1.15,3,6.71,6.71,0,0,1-1.42,3c-2.41,3.7-6.55,3.47-9.29,6.78-1.43,1.74-2,2.93-4.14,4a10.61,10.61,0,0,1-5.33,1c-8.52.1-17.05,0-25.57.06q-25.06.09-50.12.12c-3.76,0-7.51-.69-11.27-.68-4.58,0-9.15,0-13.73,0l-23.72,0L139,35.07c-7.92,0-15.81-.93-23.75-1l-24.82-.15-12.53-.08c-4.19,0-8.34-.74-12.49-.76C56.61,33,47.81,33,39,32.78c-2.18-.06-4.37,0-6.56-.05-1.29,0-2.28,3.17-2.51,4.17l-3.2,14c-3.81,16.66-9,33-12.82,49.68s-9,33.12-12.85,49.84c-.3,1.28-1.61,4.31-.82,5.22s2.92,4.23,4,4.24H19.34c7.93,0,15.87.86,23.81.94,8.74.1,17.44.64,26.17.84,8.56.19,16.88-.39,25.4.68l.42,4.48,5.88-.11.25-4.32,15.59,0a20.81,20.81,0,0,1,4.8.31l3.25.74c.46.11,2.14-.89,2.63-1.08,3.08-1.16,7.52-.1,10.91-.2l16.43-.47c7.47-.23,15,.21,22.43.05,17.82-.36,35.63-.24,53.46-.4l.38,1.54c8.8-.17,17.55-.47,26.32-1.15,9.69-.76,19.38-.58,29-1.52,1.47,6,1.37,12.56,1.85,18.72.07.92-.21,2.34.49,3,.93.85,2.93-.06,4,.18,3.34.77.93,4.64,1,6.81,0,1.08.84,2.26.7,3.59a41.6,41.6,0,0,0-.52,5.21c.1,2.87,1.75,4.43,3.68,6.47s5,1.6,7.08,4c1.73,2,2.83,5.15,4.12,7.5.74-1.45,1.28-3.43,2.51-4.54a18.2,18.2,0,0,1,4.69,1.8,35.93,35.93,0,0,0,4.59-7.73c1.43-2.94,2-4.91,5.16-6.11a141.46,141.46,0,0,1-7.37,14.79c-2.8,4.93-4.75,9.49-4.9,15.3-.14,5.23-.18,10.27,1.07,15.42.78,3.19,1.14,4.9.42,8-.41,1.79,1.54,5,2.15,6.56,3.75-3.91,6.9-8.21,11.87-10.43a25.5,25.5,0,0,1-2-4.11c2.66.61,4.22,1.5,6.56,0l.09-3.63c1.38,1.46,2.5,2.77,2.52,5s-1.4,2.66-3,3.69c3.13,1.28,4.16,2,7.25.2a54.36,54.36,0,0,0,5.33-3.84l.48.79c2.32-.37,3.67-1.88,5.22-3.49s.4-3.73,0-5.82c-.29-1.58,1.65-4.26,2.39-5.71.83-1.65.61-3.89.76-5.7,1,.68,4.12,2.16,4.44,3.44a16.79,16.79,0,0,0,2.3,5.4l1.55-.37c.57-2.5-.05-4.23-.66-6.74,1.56.84,7-2.14,5.27-3.9.73-1.19,1.1-2.34,2.72-2.31l2.29,2.72c1.81-2.61,2.39-5.21,4-7.85l3.62.1c-.43-1.15-1.93-3.71-1.8-4.91q.28-2.81.56-5.61c3.22-1.7,6.44,3.71,9.24,4.31.34-1.47.42-3,1.64-4,1.45,0,1.78,1,2.46,2-2.15,1.16-1.14,1.81-1.54,3.54-.48,2.11-1.53,1.94-2.54,3.6-1.32,2.16.87,5.8,1,8.51.13,4,.77,8.26.4,12.21s-1.82,5.72-4.15,8.54c4.44-.69,7.87-2.56,11.92-4.52,1.52-.73,4-.65,5.73-.81a28.25,28.25,0,0,0,6.39-1.49c4-1.31,5.81-5.46,7.57-8.92,1.08-2.12,1.61-3.92,3.62-5.18,1.72-1.08,3.15,2.56,3.78,3.56,1.06-.66,2.73-2.63,3.81-2.9a16.3,16.3,0,0,1,5.08-.09c2.59.15,6.16-2.31,8.6-3.24l-1.58,6.92c2.3-1.45,1.8-3,3.35-5.08,1.3-1.72,2.59-1,4.22-2.06,1.9-1.19,3.37-2.61,5.62-2.59,1.69,0,3.73.35,5.38-.06l15.29-3.71Z"></path></g></g></svg>