<svg xmlns="http://www.w3.org/2000/svg" viewBox="0 0 453.52 323.46"><g id="Layer_2" data-name="Layer 2"><g id="Hamburger"><path d="M447,206.2l2.67-.55c.84-10.78,2.18-21.7,2.37-32.51s-.38-21.65.19-32.43c1.11-21.28.53-42.72.2-64-.14-9.69-.34-19.31.16-29s1.92-20.69,0-30.25q-29.79-.9-59.57-2.26c-21.13-.93-42.29-1-63.42-1.91-10-.45-20.13-.39-30.19-.49-4,0-8,0-12-.27-5.27-.35-10.72-1.64-15.37,1.62-13.22-3.57-27-2.9-40.66-3.4l-.73,7.36-10-.19-.44-7.68c-4.72-.78-9.47-1.94-14.25-2-5-.09-10-.13-15.05-.31C148.9,6.36,107.19,1.67,65.32,0c-3.74,38-7.44,76-10.65,114-3.43,40.68-8.77,81.27-11.43,122,4.55,7.91,8.18,16.75,13.73,23.85-8.39,7.35-19.66,12.31-29.31,17.86Q13.83,285.64,0,293.62,6.45,304.79,12.86,316l1.18.32a22.17,22.17,0,0,1,3.12,7.14c2.92-1.67,5.35-3.3,8.63-4l.32-1.19,1.49-.85,4.07,3.61c3.28.05,4.81.19,7.63-1.42,2.3-1.33,3.69-3.15,5.47-5.14l2,1.81,4.56-7.58,4.39,2.43c7.75-4.44,15.67-8,23.41-12.46,3.39-2,5.1-4.88,8-7.46,2.18-1.9,8.22-2,11.16-2.62l2.14-3.22c4-.82,5.64,1.53,9.39,2.54,2.41-2.68,3.75-5.15,6.93-6.95l1-3.54,1.17.32-.32,1.19,2.37.64L129.1,273c3.31.59,5,3.71,7.27,5.75,2.47-.83,6.26-1.22,8.33-2.79,2.09-7.74,10.15-8.17,15-13.6l7.36.73c4.86-2.81,7.38-7.36,10.62-11.88A50.63,50.63,0,0,1,182.6,246c1.63-1.68,3.3-4.1,5.54-5l1-3.52,3-1.72c1.85,2.14,1.16,6.44,1.31,9.06.15,2.47,3.21,4.08,4.94,5.24,6.07-.18,11.54-.67,17.4.91,2-1.79,3-2.86,5.68-3.39,2.38-.48,5.16-.13,7.58-.16,4.85-.08,8,2.12,11.47,5.18l5.34-1.09a47.3,47.3,0,0,0,3.94-5.25l13.33-2.7A116.56,116.56,0,0,0,277.68,250l3-1.72,1.17.32.87,1.5,1.17.32-.32,1.18,2,1.8c3-5.36,7.81-10.08,14.4-10.46,3.59-.21,6.59,1.53,9.92,2.85,2.72,1.06,4.72,1.07,7.67,1.12l4.8-3.74c-1.4-.24-2.19-1.21-3.22-2.13l2.22-8.22a113.6,113.6,0,0,0-8.89-13.75c2.28,0,4.36-.34,6.28.93a23.58,23.58,0,0,1,4.83,4.59,45.9,45.9,0,0,0,.78,6.51,8.83,8.83,0,0,0-2.45,4.38c1.36,3.26,5.85,3.77,7,6.92l7.89,3.41,14.92-8.58,5.24,3.92,2.22-8.21c3.73.24,6.19.39,9.56,1.94s5.82,1.7,9.55,1.94c2.23-3.34,3-6.35,4-10.25l3-1.72,9.85,10.22q6-2.69,11.93-5.35c2.57-1.16,4.77-2.58,7.56-2.74,4.2-.25,8.95-1.21,13.12-.76,3.55.38,6.24,2.62,8.78,4.91l-.63,2.33-3.86.24.55,2.67,8-1.64,1.59-5.87h0C442.92,222,442.09,211.67,447,206.2Zm-53.28,43.63a10.86,10.86,0,0,0,5.55,2.78,44.48,44.48,0,0,1,6.51-.77c1.66-1.86,3.37-4.73,5.43-6.11s5-1.88,7.14-3.12l-19.2,1.13A28.34,28.34,0,0,0,393.68,249.83Z"></path></g></g></svg>