<svg xmlns="http://www.w3.org/2000/svg" viewBox="0 0 164.21 120.28"><g id="Layer_2" data-name="Layer 2"><g id="Hamburger"><polygon points="158.33 38.07 82.35 0 0 32.03 75.98 70.1 158.33 38.07"/><path d="M22.61,51.72V99.38c0,7.92,25.32,20.9,56.56,20.9s56.56-13,56.56-20.9V55.23L76,78.47Z"/><path d="M162.12,88.67a6.36,6.36,0,0,0-1.69-4.3q.39-1.74.81-3.57c1.46-6.37,3-13,3-18.26,0-6.58-5.41-11.51-10.2-14.6l-8.16,3.22c4.07,1.92,11.58,6.45,11.58,11.38,0,4.54-1.48,11-2.79,16.75-.26,1.12-.5,2.19-.73,3.24a6.36,6.36,0,0,0-4,8.84,89.56,89.56,0,0,1-7.27,7.86c-3.65,3.24-2.2,8.49,0,8.5s3.77.68,3.18,3.38,1.89,4,4.72,3.91,2.7-3.78,3.51-1.62c1,2.7,2.2,3.21,5.74,2.46,2.07-1.82.1-14.82-1.08-21.53A6.41,6.41,0,0,0,162.12,88.67Z"/></g></g></svg>