<svg xmlns="http://www.w3.org/2000/svg" viewBox="0 0 484.77 482.5"><defs><style>.cls-1{fill:#b5eaff;}</style></defs><g id="Layer_2" data-name="Layer 2"><g id="Hamburger"><polygon class="cls-1" points="439.55 382.25 403.77 384.38 405.93 420.16 370.48 414.81 365.15 450.25 331.6 437.65 319.02 471.21 288.82 451.9 269.53 482.12 244 456.95 218.86 482.5 199.12 452.57 169.21 472.33 156.13 438.96 122.77 452.07 116.91 416.71 81.55 422.59 83.17 386.78 47.36 385.19 56.39 350.5 21.7 341.5 37.74 309.44 5.67 293.42 28.04 265.4 0 243.07 27.7 220.31 4.92 192.63 36.74 176.13 20.22 144.32 54.77 134.8 45.22 100.25 81.01 98.12 78.85 62.34 114.29 67.69 119.62 32.24 153.18 44.85 165.76 11.29 195.96 30.6 215.24 0.38 240.77 25.55 265.92 0 285.65 29.93 315.56 10.16 328.64 43.54 362.01 30.43 367.87 65.79 403.23 59.91 401.6 95.72 437.42 97.31 428.38 132 463.08 141 447.03 173.06 479.1 189.08 456.74 217.09 484.77 239.43 457.08 262.19 479.86 289.87 448.03 306.37 464.56 338.18 430 347.7 439.55 382.25"></polygon></g></g></svg>